<?xml version="1.0" encoding="utf-8"?>
<!-- Generator: Adobe Illustrator 26.3.1, SVG Export Plug-In . SVG Version: 6.00 Build 0)  -->
<svg version="1.1" id="Layer_1" xmlns="http://www.w3.org/2000/svg" xmlns:xlink="http://www.w3.org/1999/xlink" x="0px" y="0px"
	 viewBox="0 0 10 10" style="enable-background:new 0 0 10 10;" xml:space="preserve">
<style type="text/css">
	.st0{fill:#D76A6A;}
	.st1{opacity:0.5;}
	.st2{fill:#4C3D36;}
</style>
<g>
	<g>
		<g>
			<path class="st0" d="M1.1,2.4C1.7,3.2,2.3,4,2.8,4.8C2.9,4.9,2.9,4.9,3,5c0,0,0,0,0,0.1c0,0.1,0,0.1,0,0.1c0,0,0-0.2,0-0.1
				c0,0.1,0-0.1,0-0.1c0-0.2,0-0.1,0,0C3,5,3,5,2.9,5.1C2.6,5.5,2.3,6,2,6.4C1.7,6.8,1.4,7.2,1.1,7.6C0.8,8,1,8.8,1.5,9.1
				C2,9.4,2.6,9.2,3,8.7C3.5,7.8,4.2,7,4.8,6.2c0.5-0.7,0.6-1.6,0.1-2.2C4.5,3.5,4.2,3,3.8,2.6C3.5,2.2,3.2,1.8,2.9,1.3
				C2.6,0.9,2,0.6,1.5,0.9C1,1.2,0.7,1.9,1.1,2.4L1.1,2.4z"/>
		</g>
		<g class="st1">
			<path class="st2" d="M1.4,9C2,9.4,2.6,9.2,2.9,8.7C3.5,7.8,4.2,7,4.8,6.2c0.5-0.7,0.6-1.6,0.1-2.2C4.5,3.5,4.2,3,3.8,2.6
				C3.5,2.2,3.2,1.8,2.9,1.3C2.6,0.9,1.9,0.5,1.3,1.1c0,0,0.5-0.1,1,0.5C2.6,2,3.5,3.4,4.2,4.3c0.3,0.4,0.3,1,0,1.4
				c-0.7,1-1.8,2.8-2.1,3C1.6,9.1,1.4,9,1.4,9z"/>
		</g>
	</g>
	<g>
		<g>
			<path class="st0" d="M5,2.4C5.6,3.2,6.2,4,6.8,4.8c0,0.1,0.1,0.1,0.1,0.2c0,0,0,0,0,0.1c0.1,0.1,0,0.1,0,0.1c0,0,0-0.2,0-0.1
				c0,0.1,0-0.1,0-0.1c0-0.2,0-0.1,0,0c0,0,0,0.1-0.1,0.1C6.5,5.5,6.2,6,5.8,6.4C5.6,6.8,5.3,7.2,5,7.6C4.7,8,4.9,8.8,5.4,9.1
				c0.6,0.3,1.1,0.1,1.5-0.4C7.4,7.8,8.1,7,8.7,6.2c0.5-0.7,0.6-1.6,0.1-2.2C8.4,3.5,8.1,3,7.7,2.6C7.4,2.2,7.1,1.8,6.8,1.3
				C6.5,0.9,5.9,0.6,5.4,0.9C4.9,1.2,4.6,1.9,5,2.4L5,2.4z"/>
		</g>
		<g class="st1">
			<path class="st2" d="M5.3,9c0.6,0.4,1.2,0.2,1.6-0.3C7.4,7.8,8.1,7,8.7,6.2c0.5-0.7,0.6-1.6,0.1-2.2C8.4,3.5,8.1,3,7.7,2.6
				C7.4,2.2,7.1,1.8,6.8,1.3C6.5,0.9,5.8,0.5,5.2,1.1c0,0,0.5-0.1,1,0.5C6.5,2,7.4,3.4,8,4.3c0.3,0.4,0.3,1,0,1.4
				c-0.7,1-1.8,2.8-2.1,3C5.5,9.1,5.3,9,5.3,9z"/>
		</g>
	</g>
</g>
</svg>
