<?xml version="1.0" encoding="utf-8"?>
<!-- Generator: Adobe Illustrator 26.3.1, SVG Export Plug-In . SVG Version: 6.00 Build 0)  -->
<svg version="1.1" id="Layer_1" xmlns="http://www.w3.org/2000/svg" xmlns:xlink="http://www.w3.org/1999/xlink" x="0px" y="0px"
	 viewBox="0 0 10 10" style="enable-background:new 0 0 10 10;" xml:space="preserve">
<style type="text/css">
	.st0{fill:#D76A6A;}
	.st1{opacity:0.5;}
	.st2{fill:#4C3D36;}
</style>
<g>
	<g>
		<g>
			<path class="st0" d="M8.9,7.6C8.4,6.8,7.8,6,7.2,5.2C7.1,5.1,7.1,5.1,7,5c0,0,0,0,0,0c0-0.1,0-0.1,0-0.1c0,0,0,0.2,0,0.1
				c0-0.1,0,0.1,0,0.1c0,0.2,0,0.1,0,0C7,5,7.1,5,7.1,4.9c0.3-0.4,0.7-0.9,1-1.4c0.3-0.4,0.6-0.8,0.9-1.2C9.3,1.9,9,1.2,8.5,0.9
				C8,0.6,7.4,0.8,7.1,1.3C6.5,2.1,5.8,3,5.2,3.8C4.8,4.5,4.7,5.4,5.2,6.1c0.3,0.5,0.7,0.9,1,1.4c0.3,0.4,0.6,0.8,0.9,1.3
				c0.3,0.5,1,0.7,1.5,0.4C9,8.8,9.3,8.1,8.9,7.6L8.9,7.6z"/>
		</g>
		<g class="st1">
			<path class="st2" d="M8.6,1C8,0.5,7.4,0.8,7.1,1.3C6.5,2.1,5.8,3,5.2,3.8C4.8,4.5,4.7,5.4,5.2,6.1c0.3,0.5,0.7,0.9,1,1.4
				c0.3,0.4,0.6,0.8,0.9,1.3c0.3,0.5,1.1,0.9,1.7,0.2c0,0-0.5,0.1-1-0.5C7.5,8.1,6.5,6.6,5.9,5.7c-0.3-0.4-0.3-1,0-1.5
				c0.7-1,1.8-2.8,2.2-3C8.4,0.9,8.6,1,8.6,1z"/>
		</g>
	</g>
	<g>
		<g>
			<path class="st0" d="M5,7.6C4.4,6.8,3.8,6,3.2,5.2c0-0.1-0.1-0.1-0.1-0.2c0,0,0,0,0,0c0-0.1,0-0.1,0-0.1c0,0,0,0.2,0,0.1
				c0-0.1,0,0.1,0,0.1c0,0.2,0,0.1,0,0c0,0,0.1-0.1,0.1-0.1c0.3-0.4,0.7-0.9,1-1.4C4.4,3.2,4.7,2.8,5,2.4c0.3-0.5,0.1-1.2-0.4-1.5
				C4.1,0.6,3.5,0.8,3.1,1.3C2.5,2.1,1.9,3,1.3,3.8C0.8,4.5,0.7,5.4,1.2,6.1c0.3,0.5,0.7,0.9,1,1.4c0.3,0.4,0.6,0.8,0.9,1.3
				c0.3,0.5,1,0.7,1.5,0.4C5.1,8.8,5.4,8.1,5,7.6L5,7.6z"/>
		</g>
		<g class="st1">
			<path class="st2" d="M4.7,1C4.1,0.5,3.5,0.8,3.1,1.3C2.5,2.1,1.9,3,1.3,3.8C0.8,4.5,0.7,5.4,1.2,6.1c0.3,0.5,0.7,0.9,1,1.4
				c0.3,0.4,0.6,0.8,0.9,1.3c0.3,0.5,1.1,0.9,1.7,0.2c0,0-0.5,0.1-1-0.5C3.5,8.1,2.5,6.6,1.9,5.7c-0.3-0.4-0.3-1,0-1.5
				c0.7-1,1.8-2.8,2.1-3C4.5,0.9,4.7,1,4.7,1z"/>
		</g>
	</g>
</g>
</svg>
