<svg width="45" height="68" viewBox="0 0 45 68" fill="none" xmlns="http://www.w3.org/2000/svg">
<path d="M22.27 67.0117C21.667 67.0091 21.0897 66.7677 20.6643 66.3404C20.2388 65.9131 20 65.3347 20 64.7317V30.2617C20.0053 29.6614 20.2481 29.0877 20.6754 28.666C21.1027 28.2443 21.6797 28.0091 22.28 28.0117C22.882 28.0117 23.4594 28.2509 23.8851 28.6766C24.3108 29.1023 24.55 29.6797 24.55 30.2817V64.7017C24.554 65.0037 24.4979 65.3034 24.3851 65.5835C24.2723 65.8636 24.105 66.1185 23.8929 66.3334C23.6808 66.5483 23.4281 66.7189 23.1495 66.8354C22.8709 66.9518 22.572 67.0118 22.27 67.0117Z" fill="#D76A6A"/>
<path opacity="0.5" d="M22.2695 67.0119C22.5726 67.0448 22.8791 67.0007 23.1605 66.8836C23.442 66.7664 23.6893 66.5801 23.8795 66.3419C24.3074 65.9152 24.5484 65.3361 24.5495 64.7319V30.2619C24.5417 29.6641 24.2994 29.0934 23.8748 28.6725C23.4502 28.2517 22.8773 28.0145 22.2795 28.0119C22.2795 28.0119 22.8395 27.9519 22.8295 30.0819C22.8295 32.8419 22.8295 62.7119 22.8995 63.9319C23.0543 65.0006 22.8315 66.0898 22.2695 67.0119V67.0119Z" fill="#4C3D36"/>
<path d="M5.36148 19.1817C3.57081 19.1817 2.21648 18.8304 1.29848 18.1277L2.38648 16.3767C2.65848 16.6034 3.04381 16.8074 3.54248 16.9887C4.04114 17.1587 4.50014 17.2551 4.91948 17.2777C5.32748 17.3004 5.66181 17.2551 5.92248 17.1417C6.18314 17.0284 6.31348 16.8527 6.31348 16.6147C6.31348 16.3541 6.17181 16.1501 5.88848 16.0027C5.60514 15.8554 5.15748 15.6967 4.54548 15.5267C4.20548 15.4247 3.93348 15.3454 3.72948 15.2887C3.52548 15.2207 3.27614 15.1131 2.98148 14.9657C2.68681 14.8184 2.45448 14.6711 2.28448 14.5237C2.12581 14.3651 1.98414 14.1611 1.85948 13.9117C1.73481 13.6624 1.67248 13.3847 1.67248 13.0787C1.67248 12.2627 1.99548 11.6054 2.64148 11.1067C3.29881 10.5967 4.16014 10.3417 5.22548 10.3417C6.60814 10.3417 7.76981 10.6477 8.71048 11.2597L7.55448 12.8577C7.02181 12.4611 6.37014 12.2231 5.59948 12.1437C5.21414 12.0984 4.87414 12.1267 4.57948 12.2287C4.29614 12.3307 4.15448 12.5007 4.15448 12.7387C4.15448 12.8067 4.16014 12.8691 4.17148 12.9257C4.19414 12.9711 4.22814 13.0221 4.27348 13.0787C4.33014 13.1241 4.38114 13.1694 4.42648 13.2147C4.47181 13.2487 4.53414 13.2884 4.61348 13.3337C4.70414 13.3791 4.78348 13.4187 4.85148 13.4527C4.91948 13.4754 5.01014 13.5094 5.12348 13.5547C5.23681 13.5887 5.33314 13.6171 5.41248 13.6397C5.49181 13.6624 5.59948 13.6964 5.73548 13.7417C5.87148 13.7871 5.97914 13.8211 6.05848 13.8437C6.44381 13.9684 6.76681 14.0874 7.02748 14.2007C7.29948 14.3141 7.57714 14.4727 7.86048 14.6767C8.15514 14.8694 8.37614 15.1187 8.52348 15.4247C8.68214 15.7194 8.76148 16.0651 8.76148 16.4617C8.76148 17.3004 8.45548 17.9634 7.84348 18.4507C7.23148 18.9381 6.40414 19.1817 5.36148 19.1817ZM13.5903 19.1817C12.3436 19.1817 11.3406 18.7681 10.5813 17.9407C9.82194 17.1134 9.44227 16.0537 9.44227 14.7617C9.44227 13.4697 9.82194 12.4101 10.5813 11.5827C11.3406 10.7554 12.3436 10.3417 13.5903 10.3417C14.4063 10.3417 15.1089 10.4891 15.6983 10.7837V13.0787C15.2903 12.6367 14.7179 12.4157 13.9813 12.4157C13.3466 12.4157 12.8366 12.6367 12.4513 13.0787C12.0773 13.5094 11.8903 14.0704 11.8903 14.7617C11.8903 15.4417 12.0773 16.0027 12.4513 16.4447C12.8366 16.8867 13.3466 17.1077 13.9813 17.1077C14.7179 17.1077 15.2903 16.8867 15.6983 16.4447V18.7057C15.1769 19.0231 14.4743 19.1817 13.5903 19.1817ZM21.7604 10.3417C22.633 10.3417 23.3187 10.5854 23.8174 11.0727L22.7804 12.8917C22.4177 12.6311 21.9757 12.5007 21.4544 12.5007C20.9217 12.5007 20.4514 12.7104 20.0434 13.1297C19.6467 13.5377 19.4484 14.0817 19.4484 14.7617V19.0117H16.9664V10.5117H19.1934L19.3294 11.8207C19.964 10.8347 20.7744 10.3417 21.7604 10.3417ZM28.0245 19.1817C26.7438 19.1817 25.6841 18.7567 24.8455 17.9067C24.0068 17.0567 23.5875 16.0084 23.5875 14.7617C23.5875 13.5151 24.0068 12.4667 24.8455 11.6167C25.6841 10.7667 26.7438 10.3417 28.0245 10.3417C29.2938 10.3417 30.3478 10.7667 31.1865 11.6167C32.0365 12.4667 32.4615 13.5151 32.4615 14.7617C32.4615 16.0084 32.0365 17.0567 31.1865 17.9067C30.3478 18.7567 29.2938 19.1817 28.0245 19.1817ZM28.0245 17.0057C28.6025 17.0057 29.0785 16.7904 29.4525 16.3597C29.8265 15.9291 30.0135 15.3964 30.0135 14.7617C30.0135 14.1271 29.8265 13.5944 29.4525 13.1637C29.0785 12.7217 28.6025 12.5007 28.0245 12.5007C27.4351 12.5007 26.9535 12.7161 26.5795 13.1467C26.2168 13.5774 26.0355 14.1157 26.0355 14.7617C26.0355 15.4077 26.2168 15.9461 26.5795 16.3767C26.9535 16.7961 27.4351 17.0057 28.0245 17.0057ZM37.1196 19.1817C35.9976 19.1817 35.1533 18.9041 34.5866 18.3487C34.0199 17.7821 33.7366 17.0114 33.7366 16.0367V6.26172H36.2186V16.0537C36.2186 16.3937 36.2979 16.6544 36.4566 16.8357C36.6153 17.0057 36.8306 17.0907 37.1026 17.0907C37.4199 17.0907 37.6749 16.9887 37.8676 16.7847L39.0576 18.5527C38.5703 18.9721 37.9243 19.1817 37.1196 19.1817ZM42.5237 19.1817C41.4017 19.1817 40.5574 18.9041 39.9907 18.3487C39.4241 17.7821 39.1407 17.0114 39.1407 16.0367V6.26172H41.6227V16.0537C41.6227 16.3937 41.7021 16.6544 41.8607 16.8357C42.0194 17.0057 42.2347 17.0907 42.5067 17.0907C42.8241 17.0907 43.0791 16.9887 43.2717 16.7847L44.4617 18.5527C43.9744 18.9721 43.3284 19.1817 42.5237 19.1817Z" fill="#D76A6A"/>
</svg>
