<svg width="45" height="68" viewBox="0 0 45 68" fill="none" xmlns="http://www.w3.org/2000/svg">
<path d="M22.27 67C21.667 66.9974 21.0897 66.756 20.6643 66.3287C20.2388 65.9014 20 65.323 20 64.72V30.25C20.0053 29.6497 20.2481 29.0759 20.6754 28.6543C21.1027 28.2326 21.6797 27.9974 22.28 28C22.882 28 23.4594 28.2392 23.8851 28.6649C24.3108 29.0906 24.55 29.668 24.55 30.27V64.69C24.554 64.992 24.4979 65.2917 24.3851 65.5718C24.2723 65.8519 24.105 66.1068 23.8929 66.3217C23.6808 66.5366 23.4281 66.7072 23.1495 66.8236C22.8709 66.9401 22.572 67 22.27 67Z" fill="#F3D7C3"/>
<path opacity="0.5" d="M22.2695 67.0002C22.5726 67.0331 22.8791 66.989 23.1605 66.8718C23.442 66.7547 23.6893 66.5684 23.8795 66.3302C24.3074 65.9035 24.5484 65.3244 24.5495 64.7202V30.2502C24.5417 29.6524 24.2994 29.0817 23.8748 28.6608C23.4502 28.24 22.8773 28.0027 22.2795 28.0002C22.2795 28.0002 22.8395 27.9402 22.8295 30.0702C22.8295 32.8302 22.8295 62.7002 22.8995 63.9202C23.0543 64.9889 22.8315 66.0781 22.2695 67.0002Z" fill="#D76A6A"/>
<path d="M5.36148 19.17C3.57081 19.17 2.21648 18.8187 1.29848 18.116L2.38648 16.365C2.65848 16.5917 3.04381 16.7957 3.54248 16.977C4.04114 17.147 4.50014 17.2433 4.91948 17.266C5.32748 17.2887 5.66181 17.2433 5.92248 17.13C6.18314 17.0167 6.31348 16.841 6.31348 16.603C6.31348 16.3423 6.17181 16.1383 5.88848 15.991C5.60514 15.8437 5.15748 15.685 4.54548 15.515C4.20548 15.413 3.93348 15.3337 3.72948 15.277C3.52548 15.209 3.27614 15.1013 2.98148 14.954C2.68681 14.8067 2.45448 14.6593 2.28448 14.512C2.12581 14.3533 1.98414 14.1493 1.85948 13.9C1.73481 13.6507 1.67248 13.373 1.67248 13.067C1.67248 12.251 1.99548 11.5937 2.64148 11.095C3.29881 10.585 4.16014 10.33 5.22548 10.33C6.60814 10.33 7.76981 10.636 8.71048 11.248L7.55448 12.846C7.02181 12.4493 6.37014 12.2113 5.59948 12.132C5.21414 12.0867 4.87414 12.115 4.57948 12.217C4.29614 12.319 4.15448 12.489 4.15448 12.727C4.15448 12.795 4.16014 12.8573 4.17148 12.914C4.19414 12.9593 4.22814 13.0103 4.27348 13.067C4.33014 13.1123 4.38114 13.1577 4.42648 13.203C4.47181 13.237 4.53414 13.2767 4.61348 13.322C4.70414 13.3673 4.78348 13.407 4.85148 13.441C4.91948 13.4637 5.01014 13.4977 5.12348 13.543C5.23681 13.577 5.33314 13.6053 5.41248 13.628C5.49181 13.6507 5.59948 13.6847 5.73548 13.73C5.87148 13.7753 5.97914 13.8093 6.05848 13.832C6.44381 13.9567 6.76681 14.0757 7.02748 14.189C7.29948 14.3023 7.57714 14.461 7.86048 14.665C8.15514 14.8577 8.37614 15.107 8.52348 15.413C8.68214 15.7077 8.76148 16.0533 8.76148 16.45C8.76148 17.2887 8.45548 17.9517 7.84348 18.439C7.23148 18.9263 6.40414 19.17 5.36148 19.17ZM13.5903 19.17C12.3436 19.17 11.3406 18.7563 10.5813 17.929C9.82194 17.1017 9.44227 16.042 9.44227 14.75C9.44227 13.458 9.82194 12.3983 10.5813 11.571C11.3406 10.7437 12.3436 10.33 13.5903 10.33C14.4063 10.33 15.1089 10.4773 15.6983 10.772V13.067C15.2903 12.625 14.7179 12.404 13.9813 12.404C13.3466 12.404 12.8366 12.625 12.4513 13.067C12.0773 13.4977 11.8903 14.0587 11.8903 14.75C11.8903 15.43 12.0773 15.991 12.4513 16.433C12.8366 16.875 13.3466 17.096 13.9813 17.096C14.7179 17.096 15.2903 16.875 15.6983 16.433V18.694C15.1769 19.0113 14.4743 19.17 13.5903 19.17ZM21.7604 10.33C22.633 10.33 23.3187 10.5737 23.8174 11.061L22.7804 12.88C22.4177 12.6193 21.9757 12.489 21.4544 12.489C20.9217 12.489 20.4514 12.6987 20.0434 13.118C19.6467 13.526 19.4484 14.07 19.4484 14.75V19H16.9664V10.5H19.1934L19.3294 11.809C19.964 10.823 20.7744 10.33 21.7604 10.33ZM28.0245 19.17C26.7438 19.17 25.6841 18.745 24.8455 17.895C24.0068 17.045 23.5875 15.9967 23.5875 14.75C23.5875 13.5033 24.0068 12.455 24.8455 11.605C25.6841 10.755 26.7438 10.33 28.0245 10.33C29.2938 10.33 30.3478 10.755 31.1865 11.605C32.0365 12.455 32.4615 13.5033 32.4615 14.75C32.4615 15.9967 32.0365 17.045 31.1865 17.895C30.3478 18.745 29.2938 19.17 28.0245 19.17ZM28.0245 16.994C28.6025 16.994 29.0785 16.7787 29.4525 16.348C29.8265 15.9173 30.0135 15.3847 30.0135 14.75C30.0135 14.1153 29.8265 13.5827 29.4525 13.152C29.0785 12.71 28.6025 12.489 28.0245 12.489C27.4351 12.489 26.9535 12.7043 26.5795 13.135C26.2168 13.5657 26.0355 14.104 26.0355 14.75C26.0355 15.396 26.2168 15.9343 26.5795 16.365C26.9535 16.7843 27.4351 16.994 28.0245 16.994ZM37.1196 19.17C35.9976 19.17 35.1533 18.8923 34.5866 18.337C34.0199 17.7703 33.7366 16.9997 33.7366 16.025V6.25H36.2186V16.042C36.2186 16.382 36.2979 16.6427 36.4566 16.824C36.6153 16.994 36.8306 17.079 37.1026 17.079C37.4199 17.079 37.6749 16.977 37.8676 16.773L39.0576 18.541C38.5703 18.9603 37.9243 19.17 37.1196 19.17ZM42.5237 19.17C41.4017 19.17 40.5574 18.8923 39.9907 18.337C39.4241 17.7703 39.1407 16.9997 39.1407 16.025V6.25H41.6227V16.042C41.6227 16.382 41.7021 16.6427 41.8607 16.824C42.0194 16.994 42.2347 17.079 42.5067 17.079C42.8241 17.079 43.0791 16.977 43.2717 16.773L44.4617 18.541C43.9744 18.9603 43.3284 19.17 42.5237 19.17Z" fill="#F3D7C3"/>
</svg>
