<?xml version="1.0" encoding="utf-8"?>
<!-- Generator: Adobe Illustrator 26.3.1, SVG Export Plug-In . SVG Version: 6.00 Build 0)  -->
<svg version="1.1" id="Layer_1" xmlns="http://www.w3.org/2000/svg" xmlns:xlink="http://www.w3.org/1999/xlink" x="0px" y="0px"
	 viewBox="0 0 1442 135" style="enable-background:new 0 0 1442 135;" xml:space="preserve">
<style type="text/css">
	.st0{fill:none;stroke:#4C3D36;stroke-linecap:round;stroke-linejoin:round;stroke-miterlimit:10;}
	.st1{fill:#D76A6A;}
	.st2{fill:#F3D7C3;stroke:#4C3D36;stroke-linecap:round;stroke-linejoin:round;stroke-miterlimit:10;}
</style>
<g>
	<path class="st0" d="M0.9,58c0,0,121.5-25.4,265.1-1.2c46.2,7.8,92.8-37.7,173.8-9.9"/>
	<path class="st0" d="M1345.8,60.1c-28.5,0.5-73.2-6.6-118.6-3.5c-153.9,9.1-174.8-19.4-322-1.8C791.7,68.4,785.4,16.6,674.4,13.4
		c-20.9-0.6-88.7,3.9-145,20.9"/>
	<g>
		<path class="st0" d="M1429.8,74c-8.4-5.4-9.8-6-20.2-7.5c-13.2-2-38.5-8.6-63.8-6.4"/>
		<path class="st0" d="M1422.4,74.4c3.8,0.6,6.8-1.1,10.3-0.1s8.5,5,8.5,5"/>
		<path class="st1" d="M1436.3,47.5c-4-4.4-12.8,11.4-15.3,20.8C1425.8,63.4,1439.1,50.6,1436.3,47.5z"/>
		<path class="st0" d="M1432,52.9c0,0-10.4,10.7-11,15.4"/>
		<path class="st1" d="M1428.8,35.4c-4.1-1.2-8.5,22.7-7.9,32.1C1422.6,63.5,1434.2,37.1,1428.8,35.4z"/>
		<path class="st0" d="M1420.9,67.9c0.1-5.4,6.3-26.8,6.3-26.8"/>
		<path class="st1" d="M1419.4,38.8c-5.7-0.6,0.6,25.8,1.5,29.5C1420.9,62.7,1422.8,39.2,1419.4,38.8z"/>
		<path class="st0" d="M1419.2,43.5c0,0,0.1,19.7,1.6,24.4"/>
	</g>
	<g>
		<path class="st0" d="M729.6,105.3c0,0-0.1-1.3-2.1-3.6"/>
		<path class="st0" d="M732.9,104.8c0,0,0.6-1.3,0.2-4.3"/>
		<path class="st0" d="M736.6,104.8c0,0,0.9-0.5,1.8-3.5"/>
	</g>
	<g>
		<path class="st0" d="M348.6,116.7c0,0-0.1-1.3-2.1-3.6"/>
		<path class="st0" d="M351.9,116.2c0,0,0.6-1.3,0.2-4.3"/>
		<path class="st0" d="M355.6,116.2c0,0,0.9-0.5,1.8-3.5"/>
	</g>
	<g>
		<path class="st0" d="M900.2,133.8c0,0-0.1-1.3-2.1-3.6"/>
		<path class="st0" d="M903.6,133.2c0,0,0.6-1.3,0.2-4.3"/>
		<path class="st0" d="M907.3,133.2c0,0,0.9-0.5,1.8-3.5"/>
	</g>
	<g>
		<path class="st0" d="M185.6,90c0,0-0.1-1.3-2.1-3.6"/>
		<path class="st0" d="M188.9,89.5c0,0,0.6-1.3,0.2-4.3"/>
		<path class="st0" d="M192.6,89.5c0,0,0.9-0.5,1.8-3.5"/>
	</g>
	<g>
		<path class="st0" d="M211.5,132.5c0,0-0.1-1.3-2.1-3.6"/>
		<path class="st0" d="M214.8,131.9c0,0,0.6-1.3,0.2-4.3"/>
		<path class="st0" d="M218.5,131.9c0,0,0.9-0.5,1.8-3.5"/>
	</g>
	<g>
		<path class="st0" d="M1037,99c0,0-0.1-1.3-2.1-3.6"/>
		<path class="st0" d="M1040.3,98.5c0,0,0.6-1.3,0.2-4.3"/>
		<path class="st0" d="M1044.1,98.5c0,0,0.9-0.5,1.8-3.5"/>
	</g>
	<g>
		<path class="st0" d="M606.7,44.1c0,0-0.1-1.3-2.1-3.6"/>
		<path class="st0" d="M610,43.5c0,0,0.6-1.3,0.2-4.3"/>
		<path class="st0" d="M613.7,43.5c0,0,0.9-0.5,1.8-3.5"/>
	</g>
	<g>
		<path class="st0" d="M16.5,88.8c0,0-0.1-1.3-2.1-3.6"/>
		<path class="st0" d="M19.8,88.3c0,0,0.6-1.3,0.2-4.3"/>
		<path class="st0" d="M23.5,88.3c0,0,0.9-0.5,1.8-3.5"/>
	</g>
	<g>
		<path class="st0" d="M1265.6,127.3c0,0-0.1-1.3-2.1-3.6"/>
		<path class="st0" d="M1268.9,126.8c0,0,0.6-1.3,0.2-4.3"/>
		<path class="st0" d="M1272.6,126.8c0,0,0.9-0.5,1.8-3.5"/>
	</g>
	<g>
		<path class="st0" d="M1415.8,132.2c0,0-0.1-1.3-2.1-3.6"/>
		<path class="st0" d="M1419.2,131.7c0,0,0.6-1.3,0.2-4.3"/>
		<path class="st0" d="M1422.9,131.7c0,0,0.9-0.5,1.8-3.5"/>
	</g>
	<g>
		<g>
			<path class="st1" d="M473.9,37.2c0,0,1.1-13.2,7.8-24.4c5.8-9.8,11.7-11.3,13.2-11.6c0.2,0,0.3,0.1,0.3,0.3
				C494.7,4.2,490.9,22.9,473.9,37.2z"/>
			<path class="st1" d="M464.2,7.4c-0.8,3.1-3.5,17.6,9.3,30.7c0.7-3.8,3.4-19.5-8.7-30.9C464.7,7,464.3,7.2,464.2,7.4z"/>
			<path class="st0" d="M491.4,5.5c0,0-13.3,21.7-17.5,31.7"/>
			<path class="st0" d="M481.6,16.6c0,0,1.1,1.4,0.9,4c2.6-0.7,3.3-1.4,3.3-1.4"/>
			<path class="st0" d="M485.8,10c0,0,1.1,1.6,0.8,3.4c0.8-0.2,2-1.3,3.9-0.9"/>
			<path class="st0" d="M465.8,18.1c0,0,0.6,0.2,2.2,1.7c0.7-1.3,1.5-2.4,1.5-2.4"/>
			<path class="st0" d="M466.5,24.5c0,0,2.4,1.3,3.5,2.1c0.6-1.2,1.7-3.3,1.7-3.3"/>
			<path class="st0" d="M465.9,10.5c0.1,0.1,4.8,20.7,7.7,27.6"/>
		</g>
		<path class="st2" d="M512,58.3c0,0-1.8-2.5-0.8-5.7s-5.2-14-5.8-14.7c-1.8-2.1-4.2-5.9-8.3-6.5c-4.2-0.6-6.4,1.9-11.1,0.9
			c-7.7-1.5-6.5,0.6-13.7,3.9c-2.8,1.3-4,2.3-4,3c-3.7,0.2-6.6,1.1-8.2,2.2c-3.2,2.2-4.5,4.8-5.9,8c-2.2,5.1-3.9,11.2-3.9,11.2"/>
		<path class="st0" d="M497.8,45.4c0,0,4.4,3.8,5.4,6.2"/>
		<path class="st0" d="M487.2,44.1c0,0,3.9,2.2,4.6,4.4s2.1,5.8,5.7,7.2s4.8,3.3,4.6,4.4"/>
		<path class="st0" d="M434.2,59.1c13,2.6,42.8,1.5,53,2.1c16.9,1.1,37.2-8.8,62-4.3"/>
	</g>
</g>
</svg>
