<?xml version="1.0" encoding="utf-8"?>
<!-- Generator: Adobe Illustrator 26.3.1, SVG Export Plug-In . SVG Version: 6.00 Build 0)  -->
<svg version="1.1" id="Layer_1" xmlns="http://www.w3.org/2000/svg" xmlns:xlink="http://www.w3.org/1999/xlink" x="0px" y="0px"
	 viewBox="0 0 850 460" style="enable-background:new 0 0 850 460;" xml:space="preserve">
<style type="text/css">
	.st0{fill:none;stroke:#4C3D36;stroke-linecap:round;stroke-linejoin:round;stroke-miterlimit:10;}
	.st1{fill:#F3D7C3;}
	.st2{fill:#D76A6A;}
	.st3{fill:#4C3D36;}
	.st4{fill:#FFFFFF;stroke:#4C3D36;stroke-linecap:round;stroke-linejoin:round;stroke-miterlimit:10;}
</style>
<g>
	<g>
		<path class="st0" d="M71.84,242.48c0,0-24.32-51.71-31.43-68.83"/>
		<path class="st0" d="M60.05,191.97c0,0-4.03,14.79-3.59,17.48"/>
		<path class="st0" d="M66.9,197.91c0,0-6.72,1.05-9.14,3.19"/>
		<path class="st0" d="M49.28,195.51c0,0-5.1-3.13-8.76-2.92"/>
		<path class="st0" d="M49.28,195.51c0,0-4,1.7-5.06,3.98"/>
		<path class="st0" d="M60.93,219.1c0,0-4.36-4.71-6.97-4.35"/>
		<path class="st0" d="M42.88,216.8c0,0,3.48,7.35,3.63,9.28"/>
		<path class="st0" d="M67.67,234.3c0,0-17.08-7.07-29.67-10.42"/>
		<line class="st0" x1="43.89" y1="230.4" x2="48.9" y2="227.53"/>
		<circle class="st1" cx="39.14" cy="170" r="4.55"/>
		<circle class="st1" cx="43.51" cy="200.85" r="1.78"/>
		<circle class="st1" cx="52.79" cy="214.02" r="2.62"/>
		<circle class="st1" cx="38.34" cy="192.31" r="2.9"/>
		<circle class="st1" cx="69.36" cy="197.23" r="2.48"/>
		<circle class="st1" cx="60.47" cy="188.19" r="3.87"/>
		<circle class="st1" cx="42.1" cy="213.41" r="3.87"/>
		<circle class="st1" cx="34.78" cy="222.14" r="4.05"/>
		<circle class="st1" cx="41.23" cy="231.59" r="3.27"/>
	</g>
	<g>
		<g>
			<path class="st0" d="M808.32,281.53l6.66,0.6l6.66,0.6c1.06,0.1,1.54,1.34,0.86,2.24l-4.26,5.65l-4.26,5.65
				c-0.68,0.9-2.01,0.78-2.39-0.21l-2.4-6.24l-2.4-6.24C806.24,282.14,806.68,281.3,808.32,281.53z"/>
			<g>
				<path class="st1" d="M809.3,295.66c0.41,1.38,1.26,2.67,2.34,3.49c2.26,1.7,5.47,1.25,7.18-1c0.18-0.23,0.33-0.48,0.46-0.73
					c2.02,0.21,4.09-0.6,5.41-2.34c1.82-2.42,1.53-5.76-0.55-7.84c0.01-0.02,0.03-0.03,0.04-0.05c1.49-1.97,1.09-4.77-0.88-6.25
					c-0.42-0.32-0.88-0.55-1.36-0.7l-0.99-0.18c-1.51,0.14-2.97,0.9-3.96,2.22c-1.85,2.45-2.08,5.4,0.31,7.2"/>
				<path class="st1" d="M811.38,298.95c-2.39-1.81-2.83-5.26-0.98-7.71s4.5-3.57,6.89-1.77"/>
			</g>
			<path class="st0" d="M806.81,281.66c0,0-18.15-1.93-33.84-24.94c-16.15-23.69-32.57-22.66-32.57-22.66"/>
			<g>
				<path class="st0" d="M787.97,273.69c0,0-5.26,7.55,3.56,15.66C796.09,278.43,787.97,273.69,787.97,273.69z"/>
			</g>
			<g>
				<path class="st0" d="M762.95,244.93c0,0-7.74,4.97-2.69,15.83C768.64,252.4,762.95,244.93,762.95,244.93z"/>
			</g>
			<g>
				<path class="st0" d="M776.92,260.34c0,0,7.55,5.26,15.66-3.56C781.66,252.22,776.92,260.34,776.92,260.34z"/>
			</g>
			<g>
				<path class="st0" d="M752.94,237.2c0,0,8.56,3.39,14.43-7.05C755.69,228.22,752.94,237.2,752.94,237.2z"/>
			</g>
		</g>
	</g>
	<g>
		<g>
			<g>
				<path class="st1" d="M637.42,405.66c-5.3-3.15-9.84-0.87-11.1-0.11c-0.17,0.1-0.17,0.35-0.01,0.45
					c1.23,0.79,5.73,3.17,11.1,0.14C637.59,406.04,637.59,405.76,637.42,405.66z"/>
				<path class="st1" d="M622.68,372.57c-5.02,1.69-6.59,5.69-7.05,7.45c-0.11,0.41,0.27,0.77,0.67,0.64
					c1.74-0.55,5.65-2.34,7.07-7.44C623.49,372.81,623.09,372.44,622.68,372.57z"/>
			</g>
			<g>
				<g>
					<g>
						<path class="st0" d="M601.22,399.35c0,0,10.46-18.04,33.8-14.3"/>
						<path class="st0" d="M603,403.55c0,0,20.23,5.06,33.8-14.3"/>
						<path class="st0" d="M632.12,389.09c0,0-13.95,0.15-26.13,10.61C622.01,398.72,632.12,389.09,632.12,389.09z"/>
					</g>
					<g>
						<path class="st0" d="M593.29,395.49c0,0-7.45-19.47,10.14-35.27"/>
						<path class="st0" d="M597.68,396.75c0,0,16.65-12.54,10.14-35.27"/>
						<path class="st0" d="M604.36,365.1c0,0,1.33,13.89-7.79,27.11"/>
						<path class="st0" d="M604.36,365.1c0,0-8.5,11.06-7.79,27.11"/>
					</g>
					<g>
						<path class="st0" d="M600.07,411.51c0,0,8.79,18.91,32.38,17.28"/>
						<path class="st0" d="M602.22,407.48c0,0,20.6-3.22,32.38,17.28"/>
						<path class="st0" d="M604.71,411.44c11.02,11.68,24.88,13.28,24.88,13.28S620.54,414.1,604.71,411.44z"/>
					</g>
				</g>
				<g>
					<g>
						<path class="st0" d="M587.81,405.03c0,0-20.23-5.06-33.8,14.3"/>
						<path class="st0" d="M589.59,409.23c0,0-10.46,18.04-33.8,14.3"/>
					</g>
					<g>
						<path class="st0" d="M590.55,396.65c0,0-8.79-18.91-32.38-17.28"/>
						<path class="st0" d="M556.03,383.38c11.78,20.5,32.38,17.28,32.38,17.28"/>
						<path class="st0" d="M585.92,396.71c0,0-13.86-1.61-24.88-13.29"/>
						<path class="st0" d="M585.92,396.71c0,0-9.04-10.63-24.88-13.29"/>
					</g>
					<g>
						<path class="st0" d="M597.33,412.67c0,0,7.45,19.47-10.14,35.27"/>
						<path class="st0" d="M594.06,415.95c0,0,1.33,13.89-7.79,27.11"/>
						<path class="st0" d="M594.06,415.95c0,0-8.5,11.06-7.79,27.11"/>
						<path class="st0" d="M592.95,411.41c0,0-16.65,12.54-10.14,35.27"/>
					</g>
					<path class="st0" d="M584.71,408.61c0,0-9.86,9.87-25.86,11.26"/>
					<path class="st0" d="M584.71,408.61c0,0-13.94,0.49-25.86,11.26"/>
				</g>
				<circle class="st2" cx="595.2" cy="404.12" r="3.52"/>
				<g>
					<path class="st1" d="M604.56,427.82c0,1.58,0.46,6.44,5.66,9.33c0.22,0.12,0.51-0.05,0.5-0.3c-0.17-5.94-4.27-8.59-5.67-9.32
						C604.82,427.41,604.56,427.57,604.56,427.82z"/>
					<path class="st1" d="M581.94,370.29c-0.45,1.52-1.41,6.3,2.74,10.56c0.18,0.18,0.5,0.1,0.57-0.15
						c1.54-5.74-1.63-9.45-2.76-10.56C582.31,369.97,582.02,370.05,581.94,370.29z"/>
				</g>
			</g>
			<g>
				<path class="st1" d="M575.48,427.55c-1.54,0.43-6.06,2.15-7.49,7.88c-0.06,0.26,0.19,0.5,0.44,0.42
					c5.65-1.73,7.13-6.33,7.47-7.9C575.96,427.7,575.73,427.48,575.48,427.55z"/>
				<path class="st1" d="M564.55,401.43c-1.36-0.84-5.7-2.98-10.87-0.13c-0.23,0.13-0.24,0.48-0.01,0.61
					c5.1,2.97,9.49,0.92,10.87,0.11C564.77,401.88,564.77,401.56,564.55,401.43z"/>
			</g>
		</g>
	</g>
	<g>
		<path class="st0" d="M426.86,372.14c0,0-7.99,17.84-4.92,22.82"/>
		<path class="st0" d="M421.95,394.95c0,0,0.68,16.01,15.35,14.55c14.67-1.46,14.73-4.86,24.03-5.9
			c-2.41-3.87-28.78-24.28-35.42-7.72C423.78,396.1,421.95,394.95,421.95,394.95z"/>
		<path class="st0" d="M423.84,396.93c0,0,4.15,2.57,11.8,3.12c7.65,0.56,14.01-0.56,19.8,1.95"/>
		<path class="st0" d="M435.51,405.75c0.21,0.24-4.4-3.72-6.09-6.46"/>
		<path class="st0" d="M439.61,404.41c0,0-2.69-3.77-3.98-4.36"/>
		<path class="st0" d="M448.07,403.93c0,0-4.13-2.66-4.27-3.68"/>
		<path class="st0" d="M438.59,399.77c0,0,1.89-3.66,4.12-5.23"/>
		<path class="st0" d="M432.2,399.64c0,0,0.81-2.06,2.54-3.75"/>
		<path class="st0" d="M418.03,399.64c0,0,1.58-6.17,3.48-11"/>
		<path class="st0" d="M418.03,399.64c0,0,12.84,6.07,12.97,33.12c-3.68-1.28-13.3-4.56-15.51-12.71
			C413.29,411.9,416.32,401.42,418.03,399.64z"/>
		<path class="st0" d="M428.93,429.56c0,0-4.42-6.82-8.84-12.37c-4.42-5.55-2.24-13.45-2.24-13.45"/>
		<path class="st0" d="M426.43,416.99c0,0-7.33-2.38-9.04-6.9"/>
		<path class="st0" d="M421.19,424.23c0,0-0.14-6.62-2.16-8.62"/>
		<path class="st0" d="M418.03,399.64c0,0-2.28,3.84-11.61,5.41c-9.34,1.57-15.33,10.13-17.15,14.32c-1.82,4.19-6.29,13.6-10.62,13
			c3.77,1.82,24.26,4.3,36.09-17.45C414.74,412.62,414.2,407.27,418.03,399.64z"/>
		<path class="st0" d="M387.48,431.45c0,0,14.3-6.22,23.66-20.98"/>
		<path class="st0" d="M390.69,426.11c0,0,7.08-0.9,9.29-2.88"/>
		<path class="st0" d="M397.61,414.11c0,0,8.47,0.88,11.87-1.17"/>
		<path class="st0" d="M400.43,427.15c0,0,2.72-4.43,4.04-8.18"/>
		<path class="st0" d="M420.72,390.66c0,0-1.79,4.56-5.45,7.57c-3.66,3-18.81,12.78-29.47-2.52c2.13-1.7,8.54-5.9,16.39-3.9
			S418.7,397.22,420.72,390.66z"/>
		<path class="st0" d="M390.19,395.66c0,0,16.04,4.36,22.96,1.3"/>
		<path class="st0" d="M397.23,400.33c0,0,5.51-0.31,7.67-2.31"/>
		<path class="st0" d="M398.94,397.44c0,0-0.45-1.42-4.28-2.81"/>
	</g>
	<g>
		<path class="st0" d="M242.97,384.04c0,0-12.82,1.04-29.36,19.55"/>
		<path class="st0" d="M234.04,387.33c0,0,8.89,14.56,0.86,17.12C227.71,406.39,226.51,395.5,234.04,387.33z"/>
		<path class="st0" d="M233.64,400.03c0,0-3.03-3.82,0.4-12.71"/>
		<path class="st1" d="M215.61,426.56c0.5,0.2,1.06,0.05,1.4-0.37c2.36-2.98,10.68-15.06-1.51-24.62
			c-12.44-9.74-20.69,4.26-22.39,7.53c-0.21,0.4-0.17,0.87,0.08,1.24l2.31,3.3c0,0,0.12,4.8,5.58,9.32
			c5.46,4.52,11.62,2.26,11.62,2.26S214.12,425.96,215.61,426.56z"/>
		<path class="st0" d="M209.87,401.44c0,0-4.19,10.95,2.44,21.84"/>
		<path class="st0" d="M197,412.67c0,0,6.69,2.13,11.76-0.01"/>
		<path class="st0" d="M205.52,423.2c0,0-2.88-3.21-3.17-9.52"/>
		<path class="st0" d="M198.47,418.38c0,0,1.73,1.43,4.46,0.11"/>
	</g>
	<g>
		<g>
			<path class="st0" d="M368.9,18.02c0,0-6.57,54.24,50.06,57.88"/>
			<path class="st0" d="M369.28,17.91c0,0,54.62,1.32,50.06,57.88"/>
			<path class="st0" d="M372.58,22.44c0,0,6.19,37.6,42.76,49.55"/>
			<path class="st0" d="M372.58,22.44c0,0,36.22,11.63,42.76,49.55"/>
			<path class="st0" d="M372.58,22.44c0,0,10.05,23.95,42.72,49.4"/>
			<path class="st0" d="M372.62,22.58c0,0,22.25,13.4,42.72,49.4"/>
		</g>
		<g>
			<g>
				<path class="st0" d="M471.48,19.37c0,0-54.64-0.26-51.71,56.41"/>
				<path class="st0" d="M471.49,19.43c0,0,5,54.41-51.71,56.41"/>
			</g>
			<line class="st0" x1="457.99" y1="34.58" x2="425.06" y2="70.74"/>
			<path class="st0" d="M458.28,34.54c0,0,8.89,0.04,8.42-9.18C457.46,25.68,458.28,34.54,458.28,34.54z"/>
			<path class="st0" d="M454.91,38.8c0,0,4.56,5.61,10.11,0.56C460.06,33.73,454.91,38.8,454.91,38.8z"/>
			<path class="st0" d="M427.17,68.72c0,0,2.95,3.63,6.54,0.36C430.51,65.44,427.17,68.72,427.17,68.72z"/>
			<path class="st0" d="M447.2,47.05c0,0,5.47,7.86,13.3,1.73C454.5,40.85,447.2,47.05,447.2,47.05z"/>
			<path class="st0" d="M439.8,55.41c0,0,5.57,9.4,14.99,3.07C448.62,48.97,439.8,55.41,439.8,55.41z"/>
			<path class="st0" d="M442.92,65.6c0,0-6.35,3.47-9.57-3.31C440.08,58.95,442.92,65.6,442.92,65.6z"/>
			<g>
				<path class="st0" d="M454.29,37.8c0,0-5.99-4.05-1.44-10.03C458.9,32.23,454.29,37.8,454.29,37.8z"/>
				<path class="st0" d="M426.31,68.32c0,0-3.87-2.62-0.93-6.49C429.29,64.71,426.31,68.32,426.31,68.32z"/>
				<path class="st0" d="M432.81,61.58c0,0-6.95-1.99-4.48-9.08C435.46,54.85,432.81,61.58,432.81,61.58z"/>
				<path class="st0" d="M446.82,46.39c0,0-8.3-4.77-2.88-13.1C452.36,38.59,446.82,46.39,446.82,46.39z"/>
				<path class="st0" d="M439.25,55.15c0,0-9.84-4.73-4.36-14.67C444.91,45.81,439.25,55.15,439.25,55.15z"/>
			</g>
		</g>
	</g>
	<g>
		<g>
			<line class="st0" x1="23.31" y1="121.93" x2="16.73" y2="111.83"/>
			<line class="st0" x1="16.73" y1="111.83" x2="28.76" y2="111.07"/>
			<path class="st0" d="M23.31,121.93c0,0,11.18,2.96,11.37,2.9l49.62,25.02c1.82,0.91,4.04,0.18,4.95-1.64
				c0.91-1.82,0.18-4.04-1.64-4.95l-49.77-25.09c-0.04-0.02-9.07-7.1-9.07-7.1"/>
		</g>
		<g>
			<g>
				<line class="st0" x1="26.3" y1="116.44" x2="17.72" y2="112.13"/>
				<circle class="st2" cx="28.48" cy="117.54" r="1.39"/>
			</g>
			<circle class="st2" cx="15.19" cy="110.87" r="0.94"/>
		</g>
		<g>
			<line class="st0" x1="40.99" y1="125.21" x2="69.93" y2="139.74"/>
			<line class="st0" x1="41.98" y1="123.25" x2="59.66" y2="132.13"/>
		</g>
		<path class="st0" d="M74.04,138.72l11.17,5.61c1.15,0.58,1.42,1.6,0.99,2.47l0,0c-0.44,0.87-1.42,1.26-2.57,0.68l-1.84-0.92"/>
		<path class="st0" d="M33.6,122.26l1.51-3.01c0.16-0.32,0.07-0.71-0.21-0.93l-3.22-2.52"/>
		<path class="st2" d="M40.19,118.49l-3.98,7.93c-0.28,0.56-0.97,0.79-1.53,0.51h0c-0.56-0.28-0.79-0.97-0.51-1.53l3.98-7.93
			c0.28-0.56,0.97-0.79,1.53-0.51v0C40.24,117.25,40.47,117.94,40.19,118.49z"/>
	</g>
	<g>
		<path class="st0" d="M63.61,69.73c0,0-5.38-2.94-11.33-3.79"/>
		<path class="st0" d="M65.97,65.87c0,0-2.68-4.99-7.2-8.96"/>
		<path class="st0" d="M70.38,62.55c0,0-0.37-5.81-2.83-11.29"/>
	</g>
	<path class="st0" d="M825.39,357.12c0,1.16-1.31,1.92-2.47,1.92s-2.11-0.58-2.11-1.74s0.94-2.11,2.11-2.11
		S825.39,355.96,825.39,357.12z"/>
	<path class="st2" d="M11.9,115.97c2.23,0.79,2.8,3.82,2.01,6.06c-0.79,2.23-2.55,3.65-4.78,2.86c-2.23-0.79-1.6-3-0.8-5.23
		S9.67,115.17,11.9,115.97z"/>
	<path class="st2" d="M4.43,133.18c0.26,0.71-0.37,1.47-1.08,1.73s-1.42,0.12-1.68-0.6s0.24-1.47,0.96-1.73S4.17,132.47,4.43,133.18
		z"/>
	<path class="st0" d="M813.97,343.35c0,1.76-1.98,2.91-3.74,2.91c-1.76,0-3.18-0.88-3.18-2.63c0-1.76,1.43-3.18,3.18-3.18
		C812,340.44,813.97,341.59,813.97,343.35z"/>
	<path class="st1" d="M241.61,453.35c1.6-0.33,5-0.55,7.5,2.76c0.25,0.32,0.05,0.8-0.36,0.83c-1.89,0.17-3.95,0.42-7.38-2.72
		C241.07,453.95,241.21,453.43,241.61,453.35z"/>
	<path class="st1" d="M227.06,448.03c-2.4-1.56-8.73-6.68-6.7-16.06c0.12-0.55,0.77-0.81,1.24-0.5c3.73,2.42,9.26,8.05,6.68,16.14
		C228.12,448.11,227.51,448.32,227.06,448.03z"/>
	<path class="st1" d="M247.51,430.02c0,1.16-1.31,1.92-2.47,1.92c-1.16,0-2.11-0.58-2.11-1.74s0.94-2.11,2.11-2.11
		C246.2,428.1,247.51,428.86,247.51,430.02z"/>
	<g>
		<path class="st0" d="M221.53,69.48c0,0,11.52-12.56,14.49-27.56c6.89-3.34,11.4-5.75,11.4-5.75s14.61,6.99,17.19,10.25
			c0.96,2.74,1.79,6.51,2.1,10.61c-5.2,4.74-13.74,18.62-14.64,27.11c-8.89-3.25-13.09-7.26-18.98-10.09
			C227.19,71.2,221.53,69.48,221.53,69.48z"/>
		<path class="st0" d="M252.07,84.14l3.96-2.22l10.68-24.88C266.71,57.03,255.65,67.6,252.07,84.14z"/>
		<path class="st0" d="M231.42,54.81c0,0,4.51-2.3,10,1.33c4.05,2.68,1.87,4.37,5.34,7.78c3.29,3.23,6.68,2.13,9.9,6.25"/>
		<g>
			<g>
				<path class="st3" d="M237.5,58.34c0.18,0.23,0.35,0.45,0.53,0.68c0.05,0.05,0.1,0.08,0.16,0.1c0.06,0.03,0.12,0.05,0.19,0.04
					c0.07,0,0.13-0.01,0.19-0.04c0.06-0.02,0.12-0.05,0.16-0.1c0.09-0.1,0.15-0.22,0.15-0.35c-0.01-0.04-0.01-0.09-0.02-0.13
					c-0.02-0.08-0.07-0.16-0.13-0.22c-0.18-0.23-0.35-0.45-0.53-0.68c-0.05-0.05-0.1-0.08-0.16-0.1c-0.06-0.03-0.12-0.05-0.19-0.04
					c-0.07,0-0.13,0.01-0.19,0.04c-0.06,0.02-0.12,0.05-0.16,0.1c-0.09,0.1-0.15,0.22-0.15,0.35c0.01,0.04,0.01,0.09,0.02,0.13
					C237.4,58.21,237.44,58.28,237.5,58.34L237.5,58.34z"/>
			</g>
		</g>
		<g>
			<g>
				<path class="st3" d="M232.2,60.07c0.11,0.07,0.21,0.13,0.32,0.2c0.06,0.04,0.12,0.06,0.19,0.06c0.07,0.01,0.13,0.01,0.2-0.01
					c0.07-0.02,0.12-0.05,0.17-0.09c0.05-0.04,0.1-0.08,0.13-0.14c0.02-0.04,0.03-0.08,0.05-0.12c0.02-0.09,0.02-0.18,0-0.27
					c-0.02-0.04-0.03-0.08-0.05-0.12c-0.04-0.08-0.1-0.13-0.18-0.18c-0.11-0.07-0.21-0.13-0.32-0.2c-0.06-0.04-0.12-0.06-0.19-0.06
					c-0.07-0.01-0.13-0.01-0.2,0.01c-0.07,0.02-0.12,0.05-0.17,0.09c-0.05,0.04-0.1,0.08-0.13,0.14c-0.02,0.04-0.03,0.08-0.05,0.12
					c-0.02,0.09-0.02,0.18,0,0.27c0.02,0.04,0.03,0.08,0.05,0.12C232.06,59.97,232.12,60.03,232.2,60.07L232.2,60.07z"/>
			</g>
		</g>
		<g>
			<g>
				<path class="st3" d="M236.76,61.69c0.31-0.07,0.63-0.13,0.94-0.2c0.12-0.02,0.24-0.13,0.3-0.23c0.06-0.11,0.09-0.27,0.05-0.39
					c-0.04-0.12-0.11-0.24-0.23-0.3c-0.12-0.07-0.25-0.08-0.39-0.05c-0.31,0.07-0.63,0.13-0.94,0.2c-0.12,0.02-0.24,0.13-0.3,0.23
					c-0.06,0.11-0.09,0.27-0.05,0.39c0.04,0.12,0.11,0.24,0.23,0.3C236.5,61.71,236.63,61.72,236.76,61.69L236.76,61.69z"/>
			</g>
		</g>
		<g>
			<g>
				<path class="st3" d="M234.55,62.24c0.01,0.1,0,0.2-0.02,0.3c0.01-0.04,0.01-0.09,0.02-0.13c-0.02,0.13-0.04,0.26-0.06,0.39
					c-0.02,0.12,0,0.22,0.01,0.34c0.02,0.07,0.05,0.12,0.09,0.17c0.04,0.05,0.08,0.1,0.14,0.13c0.11,0.06,0.27,0.09,0.39,0.05
					c0.12-0.04,0.24-0.11,0.3-0.23c0.02-0.04,0.03-0.08,0.05-0.12c0.02-0.09,0.02-0.18,0-0.27c0,0,0-0.01,0-0.01
					c0.01,0.04,0.01,0.09,0.02,0.13c-0.01-0.07,0-0.15,0.01-0.22c-0.01,0.04-0.01,0.09-0.02,0.13c0.03-0.22,0.08-0.45,0.07-0.67
					c-0.01-0.13-0.05-0.26-0.15-0.35c-0.09-0.09-0.23-0.15-0.35-0.15c-0.13,0.01-0.26,0.05-0.35,0.15
					C234.61,61.98,234.55,62.11,234.55,62.24L234.55,62.24z"/>
			</g>
		</g>
		<g>
			<g>
				<path class="st3" d="M239.25,63.47c0.18,0.15,0.37,0.29,0.55,0.44c0.05,0.05,0.1,0.08,0.16,0.1c0.06,0.03,0.12,0.05,0.19,0.04
					c0.07,0,0.13-0.01,0.19-0.04c0.06-0.02,0.12-0.05,0.16-0.1c0.09-0.1,0.15-0.22,0.15-0.35c-0.01-0.04-0.01-0.09-0.02-0.13
					c-0.02-0.08-0.07-0.16-0.13-0.22c-0.18-0.15-0.37-0.29-0.55-0.44c-0.05-0.05-0.1-0.08-0.16-0.1c-0.06-0.03-0.12-0.05-0.19-0.04
					c-0.07,0-0.13,0.01-0.19,0.04c-0.06,0.02-0.12,0.05-0.16,0.1c-0.09,0.1-0.15,0.22-0.15,0.35c0.01,0.04,0.01,0.09,0.02,0.13
					C239.15,63.33,239.19,63.41,239.25,63.47L239.25,63.47z"/>
			</g>
		</g>
		<g>
			<g>
				<path class="st3" d="M241.35,61.46c0.05,0.01,0.11,0.02,0.16,0.02c0,0,0.01,0,0.01,0c0,0,0.13-0.02,0.13-0.02
					c0.04-0.01,0.08-0.03,0.12-0.05c0.04-0.02,0.07-0.05,0.1-0.08c0.07-0.07,0.07-0.09,0.1-0.16c0.03-0.08,0.02-0.04,0.03-0.13
					c0.01-0.07,0.01-0.13-0.01-0.2c-0.02-0.04-0.03-0.08-0.05-0.12c0,0-0.08-0.1-0.08-0.1c0,0-0.1-0.08-0.1-0.08
					c-0.04-0.02-0.08-0.04-0.12-0.05c0,0,0,0,0,0c-0.05-0.01-0.09-0.02-0.14-0.02c0,0,0,0,0,0c0,0,0,0,0,0c0,0,0,0,0,0
					c-0.02,0-0.04,0.01-0.07,0.01c0.11-0.01-0.05,0-0.07,0.01c0,0-0.12,0.05-0.12,0.05c-0.08,0.04-0.09,0.07-0.14,0.13
					c-0.05,0.06-0.06,0.07-0.09,0.17c-0.02,0.09-0.02,0.18,0,0.27c0.03,0.13,0.12,0.24,0.23,0.3c0,0,0.01,0,0.01,0
					c0.04,0.02,0.09,0.04,0.13,0.06c0.02,0.01,0.03,0.01,0.05,0.02c0.07,0.02,0.13,0.02,0.2,0.01c0.07,0,0.13-0.02,0.19-0.06
					c0.06-0.03,0.11-0.07,0.14-0.13c0.04-0.05,0.07-0.1,0.09-0.17c0.01-0.04,0.01-0.09,0.02-0.13c0-0.09-0.02-0.17-0.07-0.25
					c-0.03-0.03-0.05-0.07-0.08-0.1c-0.06-0.06-0.14-0.1-0.22-0.13c-0.02-0.01-0.04-0.01-0.06-0.02c0.04,0.02,0.08,0.03,0.12,0.05
					c-0.01,0-0.01-0.01-0.02-0.01c0.03,0.03,0.07,0.05,0.1,0.08c0,0,0,0,0,0c0.03,0.03,0.05,0.07,0.08,0.1c0,0,0,0,0,0
					c0.02,0.04,0.03,0.08,0.05,0.12c0,0,0,0,0,0c0.01,0.04,0.01,0.09,0.02,0.13c0,0,0,0,0,0c-0.01,0.04-0.01,0.09-0.02,0.13
					c0,0,0,0,0,0c-0.02,0.04-0.03,0.08-0.05,0.12c0,0,0,0,0,0c-0.03,0.03-0.05,0.07-0.08,0.1c0,0,0,0,0,0
					c-0.03,0.03-0.07,0.05-0.1,0.08c0,0,0,0,0,0c-0.04,0.02-0.08,0.03-0.12,0.05c0,0,0,0,0,0c-0.04,0.01-0.09,0.01-0.13,0.02
					c0,0,0.01,0,0.01,0c-0.04-0.01-0.09-0.01-0.13-0.02c0,0,0,0,0.01,0c-0.04-0.02-0.08-0.03-0.12-0.05c0,0,0,0,0,0
					c-0.03-0.03-0.07-0.05-0.1-0.08c0,0,0,0,0,0c-0.03-0.03-0.05-0.07-0.08-0.1c0,0,0,0,0,0c-0.02-0.13-0.03-0.26-0.05-0.39
					c0,0,0,0,0,0c0.04-0.07,0.09-0.15,0.13-0.22c0,0,0,0,0,0c0.03-0.03,0.07-0.05,0.1-0.08c0,0,0,0,0,0
					c0.04-0.02,0.08-0.03,0.12-0.05c0,0,0,0,0,0c0.04-0.01,0.09-0.01,0.13-0.02c-0.01,0-0.03,0-0.04,0
					c0.04,0.01,0.09,0.01,0.13,0.02c0,0,0,0,0,0c-0.07-0.02-0.13-0.02-0.2-0.01c-0.07,0-0.13,0.02-0.19,0.06
					c-0.06,0.03-0.11,0.07-0.14,0.13c-0.04,0.05-0.07,0.1-0.09,0.17c-0.01,0.04-0.01,0.09-0.02,0.13c0,0.09,0.02,0.17,0.07,0.25
					c0.03,0.03,0.05,0.07,0.08,0.1C241.2,61.4,241.27,61.44,241.35,61.46L241.35,61.46z"/>
			</g>
		</g>
		<g>
			<g>
				<path class="st3" d="M242.35,67.43c0.11,0.18,0.23,0.36,0.34,0.53c0.07,0.11,0.17,0.19,0.3,0.23c0.07,0.02,0.13,0.02,0.2,0.01
					c0.07,0,0.13-0.02,0.19-0.06c0.11-0.07,0.2-0.17,0.23-0.3c0.01-0.04,0.01-0.09,0.02-0.13c0-0.09-0.02-0.17-0.07-0.25
					c-0.11-0.18-0.23-0.36-0.34-0.53c-0.07-0.11-0.17-0.19-0.3-0.23c-0.07-0.02-0.13-0.02-0.2-0.01c-0.07,0-0.13,0.02-0.19,0.06
					c-0.11,0.07-0.2,0.17-0.23,0.3c-0.01,0.04-0.01,0.09-0.02,0.13C242.28,67.26,242.3,67.35,242.35,67.43L242.35,67.43z"/>
			</g>
		</g>
		<g>
			<g>
				<path class="st3" d="M245.16,67.22c0.02,0.16,0.04,0.33,0.06,0.49c0,0.07,0.01,0.13,0.04,0.19c0.02,0.06,0.05,0.12,0.1,0.16
					c0.05,0.05,0.1,0.08,0.16,0.1c0.06,0.03,0.12,0.05,0.19,0.04c0.04-0.01,0.09-0.01,0.13-0.02c0.08-0.02,0.16-0.07,0.22-0.13
					c0.03-0.03,0.05-0.07,0.08-0.1c0.05-0.08,0.07-0.16,0.07-0.25c-0.02-0.16-0.04-0.33-0.06-0.49c0-0.07-0.01-0.13-0.04-0.19
					c-0.02-0.06-0.05-0.12-0.1-0.16c-0.05-0.05-0.1-0.08-0.16-0.1c-0.06-0.03-0.12-0.05-0.19-0.04c-0.04,0.01-0.09,0.01-0.13,0.02
					c-0.08,0.02-0.16,0.07-0.22,0.13c-0.03,0.03-0.05,0.07-0.08,0.1C245.18,67.05,245.16,67.13,245.16,67.22L245.16,67.22z"/>
			</g>
		</g>
		<g>
			<g>
				<path class="st3" d="M246.46,66.24c0.12,0.04,0.23,0.08,0.35,0.13c0.07,0.02,0.13,0.02,0.2,0.01c0.07,0,0.13-0.02,0.19-0.06
					c0.06-0.03,0.11-0.07,0.14-0.13c0.04-0.05,0.07-0.1,0.09-0.17c0.01-0.04,0.01-0.09,0.02-0.13c0-0.09-0.02-0.17-0.07-0.25
					c-0.03-0.03-0.05-0.07-0.08-0.1c-0.06-0.06-0.14-0.1-0.22-0.13c-0.12-0.04-0.23-0.08-0.35-0.13c-0.07-0.02-0.13-0.02-0.2-0.01
					c-0.07,0-0.13,0.02-0.19,0.06c-0.06,0.03-0.11,0.07-0.14,0.13c-0.04,0.05-0.07,0.1-0.09,0.17c-0.01,0.04-0.01,0.09-0.02,0.13
					c0,0.09,0.02,0.17,0.07,0.25c0.03,0.03,0.05,0.07,0.08,0.1C246.3,66.17,246.37,66.21,246.46,66.24L246.46,66.24z"/>
			</g>
		</g>
		<g>
			<g>
				<path class="st3" d="M247.77,68.08c0.02,0.04,0.04,0.08,0.06,0.13C247.81,68.17,247.79,68.13,247.77,68.08
					c0.06,0.14,0.1,0.27,0.12,0.41c-0.01-0.04-0.01-0.09-0.02-0.13c0,0.01,0,0.01,0,0.02c0,0.07,0.01,0.13,0.04,0.19
					c0.02,0.06,0.05,0.12,0.1,0.16c0.05,0.05,0.1,0.08,0.16,0.1c0.06,0.03,0.12,0.05,0.19,0.04c0.04-0.01,0.09-0.01,0.13-0.02
					c0.08-0.02,0.16-0.07,0.22-0.13c0.03-0.03,0.05-0.07,0.08-0.1c0.05-0.08,0.07-0.16,0.07-0.25c-0.02-0.14-0.04-0.28-0.08-0.42
					c-0.04-0.13-0.1-0.26-0.16-0.39c-0.03-0.06-0.07-0.11-0.13-0.14c-0.05-0.04-0.1-0.07-0.17-0.09c-0.07-0.02-0.13-0.02-0.2-0.01
					c-0.07,0-0.13,0.02-0.19,0.06c-0.11,0.07-0.2,0.17-0.23,0.3c-0.01,0.04-0.01,0.09-0.02,0.13
					C247.7,67.92,247.72,68.01,247.77,68.08L247.77,68.08z"/>
			</g>
		</g>
		<g>
			<g>
				<path class="st3" d="M250.67,68.42c0.17,0.17,0.34,0.35,0.51,0.52c0.05,0.05,0.1,0.08,0.16,0.1c0.06,0.03,0.12,0.05,0.19,0.04
					c0.07,0,0.13-0.01,0.19-0.04c0.06-0.02,0.12-0.05,0.16-0.1c0.09-0.1,0.15-0.22,0.15-0.35c-0.01-0.04-0.01-0.09-0.02-0.13
					c-0.02-0.08-0.07-0.16-0.13-0.22c-0.17-0.17-0.34-0.35-0.51-0.52c-0.05-0.05-0.1-0.08-0.16-0.1c-0.06-0.03-0.12-0.05-0.19-0.04
					c-0.07,0-0.13,0.01-0.19,0.04c-0.06,0.02-0.12,0.05-0.16,0.1c-0.09,0.1-0.15,0.22-0.15,0.35c0.01,0.04,0.01,0.09,0.02,0.13
					C250.57,68.29,250.61,68.36,250.67,68.42L250.67,68.42z"/>
			</g>
		</g>
		<g>
			<g>
				<path class="st3" d="M253.49,71.33c0.01,0,0.03,0.01,0.04,0.01c-0.04-0.02-0.08-0.03-0.12-0.05c0.02,0.01,0.05,0.02,0.07,0.04
					c-0.03-0.03-0.07-0.05-0.1-0.08c0.02,0.02,0.04,0.04,0.06,0.06c-0.03-0.03-0.05-0.07-0.08-0.1c0.02,0.02,0.03,0.04,0.04,0.07
					c-0.02-0.04-0.03-0.08-0.05-0.12c0.01,0.02,0.01,0.04,0.02,0.06c0.02,0.07,0.05,0.12,0.09,0.17c0.04,0.05,0.08,0.1,0.14,0.13
					c0.06,0.04,0.12,0.06,0.19,0.06c0.07,0.01,0.13,0.01,0.2-0.01c0.04-0.02,0.08-0.03,0.12-0.05c0.08-0.04,0.13-0.1,0.18-0.18
					c0.02-0.04,0.03-0.08,0.05-0.12c0.02-0.09,0.02-0.18,0-0.27c0-0.01-0.01-0.03-0.01-0.04c-0.02-0.05-0.04-0.11-0.07-0.16
					c-0.01-0.01-0.02-0.03-0.02-0.04c-0.03-0.04-0.06-0.08-0.09-0.12c0-0.01-0.01-0.01-0.01-0.02c-0.01-0.01-0.02-0.02-0.03-0.03
					c-0.04-0.03-0.09-0.07-0.14-0.1c-0.01-0.01-0.03-0.01-0.04-0.02c-0.04-0.02-0.09-0.04-0.14-0.06c-0.01,0-0.02-0.01-0.02-0.01
					c-0.07-0.02-0.13-0.02-0.2-0.01c-0.07,0-0.13,0.02-0.19,0.06c-0.06,0.03-0.11,0.07-0.14,0.13c-0.04,0.05-0.07,0.1-0.09,0.17
					c-0.01,0.04-0.01,0.09-0.02,0.13c0,0.09,0.02,0.17,0.07,0.25c0.03,0.03,0.05,0.07,0.08,0.1
					C253.33,71.26,253.4,71.31,253.49,71.33L253.49,71.33z"/>
			</g>
		</g>
		<g>
			<g>
				<path class="st3" d="M250.2,71.54c0.08,0.06,0.17,0.11,0.25,0.17c0.06,0.04,0.12,0.06,0.19,0.06c0.07,0.01,0.13,0.01,0.2-0.01
					c0.07-0.02,0.12-0.05,0.17-0.09c0.05-0.04,0.1-0.08,0.13-0.14c0.02-0.04,0.03-0.08,0.05-0.12c0.02-0.09,0.02-0.18,0-0.27
					c-0.02-0.04-0.03-0.08-0.05-0.12c-0.04-0.08-0.1-0.13-0.18-0.18c-0.08-0.06-0.17-0.11-0.25-0.17c-0.06-0.04-0.12-0.06-0.19-0.06
					c-0.07-0.01-0.13-0.01-0.2,0.01c-0.07,0.02-0.12,0.05-0.17,0.09c-0.05,0.04-0.1,0.08-0.13,0.14c-0.02,0.04-0.03,0.08-0.05,0.12
					c-0.02,0.09-0.02,0.18,0,0.27c0.02,0.04,0.03,0.08,0.05,0.12C250.07,71.43,250.13,71.49,250.2,71.54L250.2,71.54z"/>
			</g>
		</g>
		<g>
			<g>
				<path class="st3" d="M243,65.12c0.07,0.03,0.14,0.05,0.21,0.08c0.07,0.02,0.13,0.02,0.2,0.01c0.07,0,0.13-0.02,0.19-0.06
					c0.06-0.03,0.11-0.07,0.14-0.13c0.04-0.05,0.07-0.1,0.09-0.17c0.01-0.04,0.01-0.09,0.02-0.13c0-0.09-0.02-0.17-0.07-0.25
					c-0.03-0.03-0.05-0.07-0.08-0.1c-0.06-0.06-0.14-0.1-0.22-0.13c-0.07-0.03-0.14-0.05-0.21-0.08c-0.07-0.02-0.13-0.02-0.2-0.01
					c-0.07,0-0.13,0.02-0.19,0.06c-0.06,0.03-0.11,0.07-0.14,0.13c-0.04,0.05-0.07,0.1-0.09,0.17c-0.01,0.04-0.01,0.09-0.02,0.13
					c0,0.09,0.02,0.17,0.07,0.25c0.03,0.03,0.05,0.07,0.08,0.1C242.84,65.06,242.92,65.1,243,65.12L243,65.12z"/>
			</g>
		</g>
		<g>
			<g>
				<path class="st3" d="M234.65,57.82c0.07,0.03,0.14,0.05,0.21,0.08c0.07,0.02,0.13,0.02,0.2,0.01c0.07,0,0.13-0.02,0.19-0.06
					c0.06-0.03,0.11-0.07,0.14-0.13c0.04-0.05,0.07-0.1,0.09-0.17c0.01-0.04,0.01-0.09,0.02-0.13c0-0.09-0.02-0.17-0.07-0.25
					c-0.03-0.03-0.05-0.07-0.08-0.1c-0.06-0.06-0.14-0.1-0.22-0.13c-0.07-0.03-0.14-0.05-0.21-0.08c-0.07-0.02-0.13-0.02-0.2-0.01
					c-0.07,0-0.13,0.02-0.19,0.06c-0.06,0.03-0.11,0.07-0.14,0.13c-0.04,0.05-0.07,0.1-0.09,0.17c-0.01,0.04-0.01,0.09-0.02,0.13
					c0,0.09,0.02,0.17,0.07,0.25c0.03,0.03,0.05,0.07,0.08,0.1C234.49,57.76,234.57,57.8,234.65,57.82L234.65,57.82z"/>
			</g>
		</g>
	</g>
	<g>
		<path class="st0" d="M740.69,185.83c0,0,7.25-23.37,18.02-37.79"/>
		<path class="st0" d="M848.4,114.54c0,0-11.41-0.1-37.37,2.09c-25.96,2.19-44.44,19.77-52.31,31.4
			C770.21,148.94,814.25,145.24,848.4,114.54z"/>
		<path class="st0" d="M783.34,145.89c0,0-8.16,10.36-14.52,13.13c-6.36,2.77-21.67,12.67-26.89,23.11
			c3.89-10.16,8.68-22.72,16.79-34.1C765.33,148.09,772.73,147.79,783.34,145.89z"/>
	</g>
	<path class="st0" d="M826.67,173.91c4.41-5.06,13.44,9.35,2.4,19.4c-13.14,11.96-30.61-6.48-22.76-13.62
		c7.85-7.14,24.58,11.96,11.44,23.92c-11.05,10.06-24.54-0.29-19.09-4.2c5.45-3.91,12.13,10.97-2.22,20.2c0,0-11.98,7.61-25.32,3.74
		c-11.29-3.28-22.57,6.4-17.7,14.38"/>
	<g>
		<path class="st0" d="M774.07,56.61c0,0,5.25-2.16,9.73-0.11s5.65,6.28,3.14,10.88c-2.51,4.61-8.76,15.68-22.12,7.06
			c0.71-1.43,1.06-2.07,1.06-2.07s7.79,6.04,14.59-0.86c5.69-5.78,7.48-15.23-7.48-12.34C773.67,58,774.07,56.61,774.07,56.61z"/>
		<path class="st4" d="M725.37,30.84c0,0,25.35,3.07,52.75,17.56c-2.51,6.91-5.71,14-8.78,19.47s-6.37,11.59-15.29,8.83
			c-0.63,2.51-0.78,2.89-0.78,2.89s-13.35-2.27-23.45-7.89c0.35-1.56,0.58-2.98,0.58-2.98s-9.7-1.91-8.49-15.6
			C723.08,40.09,725.37,30.84,725.37,30.84z"/>
		<path class="st1" d="M726.36,46.65c0.12-0.58,0.88-0.76,1.22-0.27c1.2,1.74,4.19,4.2,11.58,4.59c7.36,0.39,35.34-3.44,31.48,4.52
			c-2.71,6.13-4.89,10.83-7.76,14.64c-1.74,2.31-4.63,3.45-7.48,2.92c-7.22-1.35-18.64-4.98-24.34-7.75
			c-1.65-0.8-2.94-2.2-3.66-3.89C725.71,57.44,724.56,55.68,726.36,46.65z"/>
		<g>
			<path class="st1" d="M772.02,28.57c1.32-6.28,4.02-6.01,4.61-5.87c0.59,0.11,3.18,0.94,1.87,7.22c-1.13,5.38-3.94,8.68-5.19,9.92
				c-0.15,0.15-0.42,0.09-0.48-0.12C772.34,38.29,770.98,33.52,772.02,28.57z"/>
			<path class="st1" d="M784.63,42.25c5.03-1.34,4.69-3.51,4.55-3.98c-0.11-0.48-0.9-2.53-5.93-1.2c-4.19,1.11-6.71,3.43-7.72,4.54
				c-0.16,0.17-0.08,0.45,0.14,0.51C776.98,42.46,780.78,43.27,784.63,42.25z"/>
		</g>
	</g>
	<g>
		<g>
			<path class="st0" d="M778.94,365.51l-6.38-8.95c-0.48-0.68-1.35-0.77-1.91-0.21l-49.43,50.21c-1.21,1.23-1.33,3.35-0.28,4.82v0
				c1.05,1.47,2.91,1.78,4.22,0.69l53.56-44.41C779.32,367.18,779.42,366.19,778.94,365.51z"/>
			<path class="st0" d="M777.15,353.47c-0.29-0.42-0.85-0.55-1.3-0.3l-2.94,1.61c-0.66,0.35-0.84,1.32-0.37,1.98l6.31,8.85
				c0.47,0.66,1.34,0.66,1.78,0l1.93-2.92c0.31-0.47,0.29-1.13-0.04-1.6L777.15,353.47z"/>
			<path class="st0" d="M780.47,347.4c-1.13,1.38-1.81,3.13-1.91,4.9c-0.07,1.29,0.11,2.84,1.04,4.15c2,2.81,6.38,3.92,10.95,0.27
				c4.57-3.65,8.36-12,5.58-19.19c-0.17,2.51-1.48,6.1-8.29,6.6C784.84,344.35,782.46,344.98,780.47,347.4z"/>
			<path class="st0" d="M789.57,353.92c3.64-2.44,4.92-6.91,4.92-6.91"/>
			<path class="st0" d="M781.71,354.77c0,0,7.41-1.32,12.13-10.06"/>
			<path class="st0" d="M780.85,351.13c0,0,1.22-3.23,8.72-5.17"/>
		</g>
		<line class="st0" x1="740.03" y1="395.9" x2="775.65" y2="366.75"/>
		<line class="st0" x1="751.26" y1="383.53" x2="773.8" y2="365.09"/>
		<path class="st0" d="M722,409.38L722,409.38c0.84,1.17,2.32,1.42,3.36,0.55"/>
		<line class="st0" x1="780.71" y1="362.09" x2="776.38" y2="355.99"/>
	</g>
	<g>
		<path class="st0" d="M676.2,2.97c0,0-2.78,30.04-33.82,29.89c1.36-5.6,6.67-13.63,18.31-15.51C672.32,15.47,676.2,2.97,676.2,2.97
			z"/>
		<line class="st0" x1="642.38" y1="32.86" x2="555.81" y2="85.68"/>
		<path class="st0" d="M664,55.81c0,0-7.72-22.81-31.8-16.95c2.09,4.1,7.7,9.35,17.09,8.65C658.67,46.81,664,55.81,664,55.81z"/>
		<path class="st0" d="M648.17,59.91c0,0-17.34-21.37-40.8-5.52c3.87,3.56,11.97,6.95,21.74,2.48S648.17,59.91,648.17,59.91z"/>
		<path class="st0" d="M635.19,18.86c0,0,5.85,18.41-12.49,26.06c-0.6-3.64,0.54-9.7,6.93-13.71S635.19,18.86,635.19,18.86z"/>
		<path class="st0" d="M625.98,64.56c0,0-17.24,16.3-35.5,0.1c3.71-2.6,11.02-4.59,18.86,0.34
			C617.19,69.93,625.98,64.56,625.98,64.56z"/>
		<path class="st0" d="M614.53,34.26c0,0-16.13,5.01-12.45,21.98c2.91-1.39,6.69-5.23,6.37-11.82
			C608.13,37.83,614.53,34.26,614.53,34.26z"/>
	</g>
	<path class="st4" d="M745.43,388.48h-668c-4.17,0-7.54-3.38-7.54-7.54V77.27c0-4.17,3.38-7.54,7.54-7.54h668
		c4.17,0,7.54,3.38,7.54,7.54v303.66C752.97,385.1,749.6,388.48,745.43,388.48z"/>
	<g>
		<g>
			<path class="st0" d="M108,73.78l4.79,21.98c0.51,2.33,2.8,3.8,5.13,3.29h0c2.33-0.51,3.8-2.8,3.29-5.13l-5.8-26.64"/>
			<path class="st0" d="M118.23,80.2l-1.53-7.02l-1.55-7.09c-0.74-3.4-4.09-5.55-7.49-4.81h0c-3.4,0.74-5.55,4.09-4.81,7.49
				l0.21,0.96"/>
		</g>
		<path class="st0" d="M111.92,66.85c-0.37-1.68-2.02-2.74-3.7-2.38"/>
	</g>
	<g>
		<path class="st0" d="M253.21,55.9c0,0,6.78-21.23,18.66-12.98c7.99,5.55-1.89,23.5,6.58,25.51c7.24,1.72,7.32-8.06,15.87-5.91
			c8.91,2.24,10.16,7.06,9.37,13.14"/>
		<path class="st4" d="M296.03,76.09c0,0,2.08-1.34,3.29-3.55c2.61-0.38,7.21-0.53,9.81-2.75c1.35,0.98,3.33,1.92,3.33,1.92
			s1.41,5.61,3.46,11.49c-0.85,3.25-2.6,5.16-2.6,5.16s-3.42-0.02-9.35,2.61c-2.02-0.59-3.77-2.13-3.77-2.13
			S297.76,80.14,296.03,76.09z"/>
	</g>
	<path class="st0" d="M261.14,428.09c0,0,1.74-12.09-12.37-14.21c-3.85-0.48-8.28,2.36-6.59,6.75c1.72,4.47,13.66,0.52,10.31-10.83
		c-2.82-9.55-17.34-8.54-17.34-8.54"/>
</g>
</svg>
