<svg width="730" height="1052" viewBox="0 0 730 1052" fill="none" xmlns="http://www.w3.org/2000/svg">
<rect width="730" height="1052" fill="white"/>
<path d="M40.0806 76.9975C35.0504 74.0037 29.6397 71.9336 24.0469 70.8633" stroke="#4C3D36" stroke-linecap="round" stroke-linejoin="round"/>
<path d="M43.423 70.7426C40.7269 65.3016 37.2925 60.3848 33.248 56.1758" stroke="#4C3D36" stroke-linecap="round" stroke-linejoin="round"/>
<path d="M49.6753 65.3944C49.1933 59.0977 47.8366 52.9292 45.6562 47.1211" stroke="#4C3D36" stroke-linecap="round" stroke-linejoin="round"/>
<path d="M73.9769 667.401C73.9769 667.401 48.4494 605.361 41 584.816" stroke="#4C3D36" stroke-linecap="round" stroke-linejoin="round"/>
<path d="M61.6082 606.801C61.6082 606.801 57.4113 624.549 57.8415 627.789" stroke="#4C3D36" stroke-linecap="round" stroke-linejoin="round"/>
<path d="M68.7962 613.922C68.7962 613.922 61.7559 615.182 59.2168 617.75" stroke="#4C3D36" stroke-linecap="round" stroke-linejoin="round"/>
<path d="M50.3071 611.059C50.3071 611.059 44.9561 607.303 41.1055 607.555" stroke="#4C3D36" stroke-linecap="round" stroke-linejoin="round"/>
<path d="M50.3059 611.062C50.3059 611.062 46.109 613.103 44.9863 615.863" stroke="#4C3D36" stroke-linecap="round" stroke-linejoin="round"/>
<path d="M62.5203 639.365C62.5203 639.365 57.9457 633.713 55.1758 634.145" stroke="#4C3D36" stroke-linecap="round" stroke-linejoin="round"/>
<path d="M43.5938 636.594C43.5938 636.594 47.2345 645.414 47.3919 647.73" stroke="#4C3D36" stroke-linecap="round" stroke-linejoin="round"/>
<path d="M69.6049 657.59C69.6049 657.59 51.6947 649.106 38.4746 645.086" stroke="#4C3D36" stroke-linecap="round" stroke-linejoin="round"/>
<path d="M44.6504 652.924L49.8965 649.48" stroke="#4C3D36" stroke-linecap="round" stroke-linejoin="round"/>
<path d="M39.6587 585.893C42.2953 585.893 44.4326 583.448 44.4326 580.433C44.4326 577.417 42.2953 574.973 39.6587 574.973C37.0221 574.973 34.8848 577.417 34.8848 580.433C34.8848 583.448 37.0221 585.893 39.6587 585.893Z" fill="#F3D7C3"/>
<path d="M44.2446 619.588C45.276 619.588 46.1122 618.632 46.1122 617.452C46.1122 616.273 45.276 615.316 44.2446 615.316C43.2131 615.316 42.377 616.273 42.377 617.452C42.377 618.632 43.2131 619.588 44.2446 619.588Z" fill="#F3D7C3"/>
<path d="M53.9911 636.417C55.5093 636.417 56.7401 635.009 56.7401 633.273C56.7401 631.537 55.5093 630.129 53.9911 630.129C52.4729 630.129 51.2422 631.537 51.2422 633.273C51.2422 635.009 52.4729 636.417 53.9911 636.417Z" fill="#F3D7C3"/>
<path d="M38.8279 610.694C40.5083 610.694 41.8706 609.136 41.8706 607.214C41.8706 605.292 40.5083 603.734 38.8279 603.734C37.1474 603.734 35.7852 605.292 35.7852 607.214C35.7852 609.136 37.1474 610.694 38.8279 610.694Z" fill="#F3D7C3"/>
<path d="M71.3735 616.1C72.8106 616.1 73.9756 614.768 73.9756 613.124C73.9756 611.481 72.8106 610.148 71.3735 610.148C69.9365 610.148 68.7715 611.481 68.7715 613.124C68.7715 614.768 69.9365 616.1 71.3735 616.1Z" fill="#F3D7C3"/>
<path d="M62.0488 606.909C64.2913 606.909 66.1092 604.83 66.1092 602.265C66.1092 599.7 64.2913 597.621 62.0488 597.621C59.8062 597.621 57.9883 599.7 57.9883 602.265C57.9883 604.83 59.8062 606.909 62.0488 606.909Z" fill="#F3D7C3"/>
<path d="M42.7734 637.171C45.0159 637.171 46.8338 635.092 46.8338 632.527C46.8338 629.962 45.0159 627.883 42.7734 627.883C40.5308 627.883 38.7129 629.962 38.7129 632.527C38.7129 635.092 40.5308 637.171 42.7734 637.171Z" fill="#F3D7C3"/>
<path d="M35.0833 647.857C37.4302 647.857 39.3326 645.681 39.3326 642.997C39.3326 640.313 37.4302 638.137 35.0833 638.137C32.7365 638.137 30.834 640.313 30.834 642.997C30.834 645.681 32.7365 647.857 35.0833 647.857Z" fill="#F3D7C3"/>
<path d="M41.8509 658.266C43.7457 658.266 45.2818 656.509 45.2818 654.342C45.2818 652.175 43.7457 650.418 41.8509 650.418C39.956 650.418 38.4199 652.175 38.4199 654.342C38.4199 656.509 39.956 658.266 41.8509 658.266Z" fill="#F3D7C3"/>
<path d="M532.156 960.931C530.159 959.501 527.855 958.731 525.499 958.704C523.143 958.677 520.826 959.396 518.805 960.78C518.757 960.811 518.718 960.856 518.69 960.911C518.663 960.965 518.648 961.027 518.648 961.09C518.648 961.152 518.663 961.214 518.69 961.268C518.718 961.323 518.757 961.368 518.805 961.399C520.801 962.835 523.105 963.613 525.463 963.647C527.82 963.681 530.141 962.97 532.168 961.592C532.217 961.557 532.258 961.507 532.285 961.449C532.313 961.39 532.327 961.324 532.325 961.258C532.324 961.191 532.308 961.126 532.278 961.069C532.248 961.012 532.206 960.964 532.156 960.931Z" fill="#F3D7C3"/>
<path d="M514.424 915.384C512.366 916.133 510.508 917.467 509.023 919.261C507.539 921.055 506.477 923.251 505.937 925.642C505.903 925.769 505.901 925.903 505.931 926.031C505.96 926.159 506.02 926.274 506.104 926.366C506.187 926.457 506.291 926.52 506.404 926.548C506.517 926.576 506.634 926.567 506.743 926.524C508.804 925.78 510.666 924.45 512.155 922.658C513.644 920.866 514.71 918.672 515.255 916.279C515.284 916.15 515.283 916.014 515.251 915.886C515.218 915.758 515.156 915.642 515.071 915.55C514.986 915.458 514.881 915.395 514.768 915.366C514.654 915.336 514.535 915.343 514.424 915.384V915.384Z" fill="#F3D7C3"/>
<path d="M488.582 952.263C488.582 952.263 501.163 927.478 529.274 932.573" stroke="#4C3D36" stroke-linecap="round" stroke-linejoin="round"/>
<path d="M490.727 958.03C490.727 958.03 515.069 964.983 531.418 938.34" stroke="#4C3D36" stroke-linecap="round" stroke-linejoin="round"/>
<path d="M525.786 938.137C514.193 938.996 503.154 944.121 494.316 952.746C505.91 951.887 516.949 946.762 525.786 938.137V938.137Z" stroke="#4C3D36" stroke-linecap="round" stroke-linejoin="round"/>
<path d="M479.043 946.904C479.043 946.904 470.074 920.095 491.25 898.34" stroke="#4C3D36" stroke-linecap="round" stroke-linejoin="round"/>
<path d="M484.309 948.665C484.309 948.665 504.365 931.399 496.528 900.102" stroke="#4C3D36" stroke-linecap="round" stroke-linejoin="round"/>
<path d="M492.364 905.074C492.854 918.344 489.577 931.439 483.021 942.402" stroke="#4C3D36" stroke-linecap="round" stroke-linejoin="round"/>
<path d="M492.364 905.074C485.811 916.039 482.534 929.133 483.022 942.402" stroke="#4C3D36" stroke-linecap="round" stroke-linejoin="round"/>
<path d="M487.205 968.93C487.205 968.93 497.787 994.953 526.187 992.723" stroke="#4C3D36" stroke-linecap="round" stroke-linejoin="round"/>
<path d="M489.787 963.433C489.787 963.433 514.575 959.027 528.769 987.254" stroke="#4C3D36" stroke-linecap="round" stroke-linejoin="round"/>
<path d="M492.775 968.93C500.783 978.556 511.299 984.961 522.752 987.188C514.747 977.558 504.23 971.152 492.775 968.93V968.93Z" stroke="#4C3D36" stroke-linecap="round" stroke-linejoin="round"/>
<path d="M472.442 960.068C472.442 960.068 448.087 953.114 431.738 979.758" stroke="#4C3D36" stroke-linecap="round" stroke-linejoin="round"/>
<path d="M474.592 965.859C474.592 965.859 462.011 990.644 433.9 985.549" stroke="#4C3D36" stroke-linecap="round" stroke-linejoin="round"/>
<path d="M475.799 948.532C475.799 948.532 465.216 922.494 436.816 924.739" stroke="#4C3D36" stroke-linecap="round" stroke-linejoin="round"/>
<path d="M434.18 930.266C448.35 958.492 473.15 954.059 473.15 954.059" stroke="#5D4B42" stroke-linecap="round" stroke-linejoin="round"/>
<path d="M470.15 948.623C458.707 946.394 448.201 939.994 440.197 930.379" stroke="#4C3D36" stroke-linecap="round" stroke-linejoin="round"/>
<path d="M470.15 948.623C462.15 939.003 451.642 932.603 440.197 930.379" stroke="#4C3D36" stroke-linecap="round" stroke-linejoin="round"/>
<path d="M483.899 970.59C483.899 970.59 492.856 997.398 471.691 1019.15" stroke="#4C3D36" stroke-linecap="round" stroke-linejoin="round"/>
<path d="M479.957 975.113C480.437 988.388 477.146 1001.48 470.578 1012.44" stroke="#4C3D36" stroke-linecap="round" stroke-linejoin="round"/>
<path d="M479.955 975.113C473.389 986.073 470.099 999.167 470.577 1012.44" stroke="#4C3D36" stroke-linecap="round" stroke-linejoin="round"/>
<path d="M478.628 968.852C478.628 968.852 458.571 986.118 466.409 1017.42" stroke="#4C3D36" stroke-linecap="round" stroke-linejoin="round"/>
<path d="M468.707 965.012C460.064 973.884 449.142 979.318 437.574 980.502" stroke="#4C3D36" stroke-linecap="round" stroke-linejoin="round"/>
<path d="M468.707 965.012C457.139 966.194 446.217 971.628 437.574 980.502" stroke="#4C3D36" stroke-linecap="round" stroke-linejoin="round"/>
<path d="M481.33 963.666C483.67 963.666 485.567 961.496 485.567 958.819C485.567 956.143 483.67 953.973 481.33 953.973C478.989 953.973 477.092 956.143 477.092 958.819C477.092 961.496 478.989 963.666 481.33 963.666Z" fill="#D76A6A"/>
<path d="M492.653 991.443C492.666 994.089 493.307 996.681 494.507 998.944C495.707 1001.21 497.421 1003.05 499.467 1004.29C499.529 1004.33 499.599 1004.35 499.67 1004.34C499.74 1004.34 499.809 1004.32 499.87 1004.28C499.931 1004.24 499.981 1004.18 500.015 1004.11C500.05 1004.04 500.069 1003.96 500.069 1003.88C500.048 1001.23 499.402 998.64 498.198 996.381C496.994 994.121 495.277 992.277 493.231 991.044C493.171 991.004 493.103 990.984 493.034 990.984C492.965 990.985 492.897 991.007 492.838 991.048C492.779 991.089 492.731 991.147 492.698 991.216C492.666 991.286 492.65 991.364 492.653 991.443Z" fill="#F3D7C3"/>
<path d="M465.371 912.236C464.72 914.774 464.682 917.467 465.263 920.028C465.844 922.588 467.022 924.921 468.67 926.776C468.72 926.835 468.782 926.878 468.851 926.9C468.919 926.923 468.992 926.925 469.061 926.905C469.131 926.886 469.194 926.846 469.246 926.789C469.298 926.733 469.336 926.662 469.356 926.584C470.002 924.043 470.034 921.349 469.449 918.789C468.864 916.229 467.684 913.898 466.033 912.043C465.985 911.988 465.924 911.947 465.858 911.926C465.791 911.906 465.721 911.905 465.654 911.924C465.587 911.944 465.526 911.983 465.477 912.037C465.427 912.092 465.391 912.161 465.371 912.236V912.236Z" fill="#F3D7C3"/>
<path d="M457.596 991.082C455.377 991.792 453.368 993.176 451.78 995.086C450.193 996.996 449.087 999.362 448.579 1001.93C448.561 1002.01 448.562 1002.1 448.583 1002.18C448.604 1002.26 448.643 1002.34 448.697 1002.4C448.751 1002.46 448.817 1002.5 448.889 1002.52C448.962 1002.54 449.037 1002.54 449.109 1002.51C451.326 1001.79 453.332 1000.4 454.915 998.488C456.498 996.573 457.599 994.205 458.102 991.633C458.116 991.555 458.113 991.473 458.093 991.397C458.072 991.32 458.035 991.251 457.984 991.196C457.933 991.14 457.871 991.101 457.803 991.081C457.735 991.061 457.664 991.062 457.596 991.082V991.082Z" fill="#F3D7C3"/>
<path d="M444.498 955.16C442.533 953.786 440.28 953.044 437.977 953.013C435.673 952.981 433.405 953.661 431.412 954.981C431.347 955.021 431.292 955.081 431.254 955.153C431.215 955.226 431.195 955.309 431.195 955.394C431.195 955.479 431.215 955.562 431.254 955.635C431.292 955.708 431.347 955.767 431.412 955.807C433.378 957.181 435.632 957.921 437.935 957.95C440.239 957.979 442.506 957.296 444.498 955.973C444.558 955.929 444.607 955.869 444.641 955.798C444.675 955.727 444.693 955.647 444.693 955.566C444.693 955.485 444.675 955.406 444.641 955.335C444.607 955.264 444.558 955.204 444.498 955.16Z" fill="#F3D7C3"/>
<path d="M284.803 916.453C284.803 916.453 273.812 944.484 278.044 952.309" stroke="#4C3D36" stroke-linecap="round" stroke-linejoin="round"/>
<path d="M278.047 952.31C278.047 952.31 278.981 977.45 299.135 975.156C319.289 972.862 319.371 967.52 332.106 965.886C328.795 959.805 292.568 927.752 283.446 953.756C281.561 953.891 279.683 953.388 278.047 952.31V952.31Z" stroke="#4C3D36" stroke-linecap="round" stroke-linejoin="round"/>
<path d="M280.645 955.41C280.645 955.41 286.346 959.448 296.869 960.312C307.393 961.177 316.102 959.433 324.057 963.376" stroke="#4C3D36" stroke-linecap="round" stroke-linejoin="round"/>
<path d="M296.687 969.264C293.543 966.287 290.733 962.878 288.32 959.113" stroke="#4C3D36" stroke-linecap="round" stroke-linejoin="round"/>
<path d="M302.306 967.155C302.306 967.155 298.624 961.232 296.811 960.305" stroke="#4C3D36" stroke-linecap="round" stroke-linejoin="round"/>
<path d="M313.94 966.403C313.94 966.403 308.267 962.224 308.074 960.621" stroke="#4C3D36" stroke-linecap="round" stroke-linejoin="round"/>
<path d="M300.932 959.878C300.932 959.878 303.528 954.127 306.592 951.645" stroke="#4C3D36" stroke-linecap="round" stroke-linejoin="round"/>
<path d="M292.141 959.658C292.968 957.459 294.152 955.46 295.63 953.766" stroke="#4C3D36" stroke-linecap="round" stroke-linejoin="round"/>
<path d="M272.668 959.663C273.999 953.81 275.594 948.041 277.449 942.379" stroke="#4C3D36" stroke-linecap="round" stroke-linejoin="round"/>
<path d="M272.671 959.668C272.671 959.668 290.311 969.205 290.531 1011.71C285.489 1009.7 272.259 1004.54 269.223 991.737C266.187 978.931 270.308 962.543 272.671 959.668Z" stroke="#4C3D36" stroke-linecap="round" stroke-linejoin="round"/>
<path d="M287.649 1006.69C287.649 1006.69 281.563 995.971 275.491 987.25C269.418 978.53 272.427 966.117 272.427 966.117" stroke="#4C3D36" stroke-linecap="round" stroke-linejoin="round"/>
<path d="M284.214 986.924C284.214 986.924 274.144 983.168 271.85 976.082" stroke="#4C3D36" stroke-linecap="round" stroke-linejoin="round"/>
<path d="M277.001 998.314C277.001 998.314 276.808 987.896 274.033 984.77" stroke="#4C3D36" stroke-linecap="round" stroke-linejoin="round"/>
<path d="M272.673 959.668C272.673 959.668 269.541 965.702 256.723 968.168C243.905 970.635 235.662 984.085 233.162 990.684C230.662 997.284 224.535 1012.05 218.572 1011.11C223.752 1013.97 251.901 1017.85 268.153 983.692C267.707 975.362 269.271 967.052 272.673 959.668V959.668Z" stroke="#4C3D36" stroke-linecap="round" stroke-linejoin="round"/>
<path d="M230.703 1009.68C243.952 1002.25 255.187 990.844 263.207 976.68" stroke="#4C3D36" stroke-linecap="round" stroke-linejoin="round"/>
<path d="M235.098 1001.26C235.098 1001.26 244.824 999.845 247.86 996.734" stroke="#4C3D36" stroke-linecap="round" stroke-linejoin="round"/>
<path d="M244.604 982.389C244.604 982.389 256.226 983.772 260.897 980.551" stroke="#4C3D36" stroke-linecap="round" stroke-linejoin="round"/>
<path d="M248.492 1002.88C250.642 998.788 252.481 994.487 253.987 990.031" stroke="#4C3D36" stroke-linecap="round" stroke-linejoin="round"/>
<path d="M276.352 945.562C274.67 950.116 272.11 954.176 268.865 957.441C263.837 962.155 243.037 977.522 228.379 953.482C231.305 950.81 240.111 944.195 250.882 947.354C261.653 950.512 273.591 955.87 276.352 945.562Z" stroke="#4C3D36" stroke-linecap="round" stroke-linejoin="round"/>
<path d="M234.426 953.406C234.426 953.406 256.407 960.257 266.023 955.449" stroke="#4C3D36" stroke-linecap="round" stroke-linejoin="round"/>
<path d="M244.098 960.766C244.098 960.766 251.667 960.279 254.635 957.121" stroke="#4C3D36" stroke-linecap="round" stroke-linejoin="round"/>
<path d="M246.448 956.255C246.448 956.255 245.83 954.024 240.568 951.84" stroke="#4C3D36" stroke-linecap="round" stroke-linejoin="round"/>
<path d="M282.199 18.9102C282.199 18.9102 274.045 95.9201 344.332 101.087" stroke="#4C3D36" stroke-linecap="round" stroke-linejoin="round"/>
<path d="M282.66 18.7617C282.66 18.7617 350.465 20.6355 344.793 100.925" stroke="#4C3D36" stroke-linecap="round" stroke-linejoin="round"/>
<path d="M286.793 25.2266C286.793 25.2266 294.463 78.6154 339.865 95.5647" stroke="#4C3D36" stroke-linecap="round" stroke-linejoin="round"/>
<path d="M286.793 25.2266C286.793 25.2266 331.723 41.6932 339.84 95.5221" stroke="#4C3D36" stroke-linecap="round" stroke-linejoin="round"/>
<path d="M286.793 25.2266C286.793 25.2266 299.205 59.2955 339.815 95.366" stroke="#4C3D36" stroke-linecap="round" stroke-linejoin="round"/>
<path d="M286.793 25.4023C286.793 25.4023 314.409 44.4241 339.815 95.5275" stroke="#4C3D36" stroke-linecap="round" stroke-linejoin="round"/>
<path d="M409.517 20.8438C409.517 20.8438 341.7 20.4747 345.324 100.92" stroke="#4C3D36" stroke-linecap="round" stroke-linejoin="round"/>
<path d="M409.531 20.9688C409.531 20.9688 415.737 98.2058 345.338 101.045" stroke="#4C3D36" stroke-linecap="round" stroke-linejoin="round"/>
<path d="M392.774 42.4102L351.902 93.7548" stroke="#4C3D36" stroke-linecap="round" stroke-linejoin="round"/>
<path d="M393.124 42.3556C393.124 42.3556 404.17 42.3556 403.575 29.3242C392.119 29.7927 393.124 42.3556 393.124 42.3556Z" stroke="#4C3D36" stroke-linecap="round" stroke-linejoin="round"/>
<path d="M388.951 48.4193C388.951 48.4193 394.598 56.3829 401.499 49.2143C395.343 41.2081 388.951 48.4193 388.951 48.4193Z" stroke="#4C3D36" stroke-linecap="round" stroke-linejoin="round"/>
<path d="M354.521 90.8798C354.521 90.8798 358.183 96.0469 362.639 91.405C358.655 86.2663 354.521 90.8798 354.521 90.8798Z" stroke="#4C3D36" stroke-linecap="round" stroke-linejoin="round"/>
<path d="M379.383 60.1251C379.383 60.1251 386.172 71.2827 395.89 62.5667C388.431 51.324 379.383 60.1251 379.383 60.1251Z" stroke="#4C3D36" stroke-linecap="round" stroke-linejoin="round"/>
<path d="M370.195 72.0611C370.195 72.0611 377.109 85.4048 388.813 76.4191C381.118 62.8341 370.195 72.0611 370.195 72.0611Z" stroke="#4C3D36" stroke-linecap="round" stroke-linejoin="round"/>
<path d="M374.069 86.4598C374.069 86.4598 366.188 91.3856 362.191 81.7469C370.532 77.0199 374.069 86.4598 374.069 86.4598Z" stroke="#4C3D36" stroke-linecap="round" stroke-linejoin="round"/>
<path d="M388.182 46.9805C388.182 46.9805 380.735 41.3024 386.395 32.7852C393.904 39.0737 388.182 46.9805 388.182 46.9805Z" stroke="#4C3D36" stroke-linecap="round" stroke-linejoin="round"/>
<path d="M353.456 90.3002C353.456 90.3002 348.64 86.581 352.302 81.1016C357.155 85.1898 353.456 90.3002 353.456 90.3002Z" stroke="#4C3D36" stroke-linecap="round" stroke-linejoin="round"/>
<path d="M361.524 80.741C361.524 80.741 352.898 77.9019 355.964 67.8516C364.813 71.1875 361.524 80.741 361.524 80.741Z" stroke="#4C3D36" stroke-linecap="round" stroke-linejoin="round"/>
<path d="M378.898 59.1936C378.898 59.1936 368.596 52.4224 375.336 40.5977C385.786 48.107 378.898 59.1936 378.898 59.1936Z" stroke="#4C3D36" stroke-linecap="round" stroke-linejoin="round"/>
<path d="M369.512 71.6186C369.512 71.6186 357.287 64.961 364.101 50.7656C376.537 58.346 369.512 71.6186 369.512 71.6186Z" stroke="#4C3D36" stroke-linecap="round" stroke-linejoin="round"/>
<path d="M44.1013 376.089L35.2812 360.566" stroke="#4C3D36" stroke-linecap="round" stroke-linejoin="round"/>
<path d="M35.2812 360.573L51.4312 359.406" stroke="#4C3D36" stroke-linecap="round" stroke-linejoin="round"/>
<path d="M44.1016 376.096C44.1016 376.096 59.1104 380.702 59.3655 380.533L125.979 418.919C126.563 419.325 127.215 419.588 127.892 419.692C128.57 419.797 129.259 419.739 129.916 419.524C130.573 419.309 131.185 418.94 131.711 418.441C132.238 417.943 132.669 417.325 132.976 416.626C133.284 415.928 133.462 415.165 133.499 414.384C133.536 413.603 133.431 412.822 133.191 412.09C132.951 411.357 132.581 410.69 132.105 410.129C131.629 409.568 131.056 409.126 130.423 408.831L63.6077 370.308L51.4315 359.406" stroke="#4C3D36" stroke-linecap="round" stroke-linejoin="round"/>
<path d="M48.1334 367.668L36.6016 361.051" stroke="#4C3D36" stroke-linecap="round" stroke-linejoin="round"/>
<path d="M51.0555 371.475C52.0861 371.475 52.9215 370.52 52.9215 369.341C52.9215 368.163 52.0861 367.207 51.0555 367.207C50.0249 367.207 49.1895 368.163 49.1895 369.341C49.1895 370.52 50.0249 371.475 51.0555 371.475Z" fill="#D76A6A"/>
<path d="M33.2151 360.543C33.912 360.543 34.477 359.897 34.477 359.1C34.477 358.302 33.912 357.656 33.2151 357.656C32.5181 357.656 31.9531 358.302 31.9531 359.1C31.9531 359.897 32.5181 360.543 33.2151 360.543Z" fill="#D76A6A"/>
<path d="M67.8516 381.133L106.703 403.427" stroke="#4C3D36" stroke-linecap="round" stroke-linejoin="round"/>
<path d="M69.1816 378.121L92.9166 391.74" stroke="#4C3D36" stroke-linecap="round" stroke-linejoin="round"/>
<path d="M112.219 401.863L127.214 410.477C127.534 410.604 127.827 410.808 128.072 411.075C128.318 411.342 128.511 411.666 128.638 412.025C128.765 412.384 128.824 412.77 128.81 413.157C128.796 413.544 128.709 413.923 128.557 414.269V414.269C128.406 414.623 128.189 414.935 127.923 415.183C127.656 415.432 127.346 415.611 127.012 415.709C126.679 415.807 126.331 415.821 125.993 415.75C125.655 415.679 125.334 415.525 125.053 415.298L122.569 413.87" stroke="#4C3D36" stroke-linecap="round" stroke-linejoin="round"/>
<path d="M57.9291 376.599L59.9562 371.992C60.0588 371.753 60.0867 371.481 60.0354 371.222C59.9841 370.962 59.8567 370.73 59.6743 370.565L55.3516 366.695" stroke="#4C3D36" stroke-linecap="round" stroke-linejoin="round"/>
<path d="M64.0238 369.245L58.6808 381.416C58.3016 382.28 58.6065 383.332 59.3619 383.766C60.1172 384.2 61.037 383.851 61.4163 382.987L66.7592 370.816C67.1385 369.952 66.8336 368.9 66.0782 368.466C65.3228 368.032 64.403 368.381 64.0238 369.245Z" fill="#D76A6A"/>
<path d="M28.801 366.932C31.7947 368.145 32.5599 372.798 31.486 376.237C30.412 379.676 28.0627 381.841 25.0555 380.613C22.0484 379.384 22.921 376.007 23.9815 372.583C25.0421 369.159 25.7939 365.719 28.801 366.932Z" fill="#D76A6A"/>
<path d="M18.7705 393.348C19.1196 394.453 18.2738 395.605 17.3206 396.019C17.1224 396.144 16.9031 396.22 16.6774 396.241C16.4516 396.262 16.2246 396.227 16.0113 396.14C15.798 396.053 15.6034 395.915 15.4403 395.736C15.2772 395.556 15.1494 395.339 15.0653 395.098C15.0004 394.823 14.9837 394.536 15.0161 394.253C15.0485 393.97 15.1294 393.698 15.2541 393.451C15.3788 393.204 15.5449 392.988 15.7429 392.815C15.9409 392.642 16.1668 392.515 16.4078 392.442C16.8266 392.207 17.3095 392.17 17.7519 392.339C18.1942 392.509 18.5602 392.871 18.7705 393.348V393.348Z" fill="#D76A6A"/>
<path d="M126.357 77.2528C126.357 77.2528 140.144 60.0762 143.695 39.5627C151.934 35.0087 157.315 31.6992 157.315 31.6992C157.315 31.6992 174.784 41.2722 177.881 45.7168C179.247 50.4136 180.091 55.2886 180.392 60.2266C174.174 66.7089 163.951 85.6907 162.875 97.3013C152.257 92.8567 147.223 87.3728 140.156 83.5026C135.685 81.065 131.075 78.9769 126.357 77.2528Z" stroke="#4C3D36" stroke-linecap="round" stroke-linejoin="round"/>
<path d="M162.875 97.3168L167.658 94.2809L180.428 60.2422C171.757 70.5606 165.691 83.3724 162.875 97.3168V97.3168Z" stroke="#4C3D36" stroke-linecap="round" stroke-linejoin="round"/>
<path d="M138.184 57.2227C138.184 57.2227 143.576 54.0636 150.141 59.0415C154.983 62.7066 152.377 65.0178 156.538 69.6812C160.472 74.0984 164.513 72.5941 168.376 78.2285" stroke="#4C3D36" stroke-linecap="round" stroke-linejoin="round"/>
<path d="M145.462 62.0449L146.096 62.9748C146.147 63.0401 146.213 63.0875 146.287 63.1116C146.357 63.1551 146.435 63.1785 146.514 63.1799C146.594 63.1803 146.672 63.1567 146.742 63.1116C146.819 63.0879 146.889 63.0406 146.945 62.9748C147.051 62.8448 147.111 62.674 147.112 62.4962V62.3047C147.088 62.1916 147.039 62.0878 146.969 62.0038L146.335 61.0739C146.282 61.0111 146.216 60.9641 146.144 60.9371C146.065 60.9171 145.983 60.9171 145.905 60.9371C145.83 60.9168 145.752 60.9168 145.677 60.9371C145.605 60.9641 145.539 61.0111 145.486 61.0739C145.376 61.2025 145.313 61.3731 145.307 61.5525V61.744C145.339 61.8557 145.392 61.9583 145.462 62.0449V62.0449Z" fill="#4C3D36"/>
<path d="M139.116 64.406L139.499 64.6659C139.565 64.7193 139.645 64.748 139.726 64.7479C139.804 64.7753 139.887 64.7753 139.965 64.7479C140.043 64.7356 140.115 64.692 140.168 64.6248C140.235 64.5787 140.289 64.5124 140.324 64.4334L140.384 64.2693C140.408 64.1523 140.408 64.0306 140.384 63.9137L140.324 63.7496C140.271 63.6484 140.197 63.5638 140.109 63.5034L139.726 63.2299C139.655 63.1883 139.578 63.1605 139.499 63.1479C139.42 63.1278 139.338 63.1278 139.26 63.1479C139.186 63.1752 139.117 63.2168 139.056 63.2709C138.993 63.321 138.94 63.3863 138.901 63.4624V63.6265C138.877 63.748 138.877 63.8742 138.901 63.9958V64.1599C138.96 64.255 139.033 64.3382 139.116 64.406V64.406Z" fill="#4C3D36"/>
<path d="M144.577 66.6201L145.773 66.3466C145.917 66.2907 146.04 66.1795 146.12 66.032C146.152 65.9479 146.168 65.8571 146.168 65.7653C146.168 65.6736 146.152 65.5828 146.12 65.4987C146.102 65.4137 146.068 65.3342 146.021 65.2657C145.973 65.1972 145.913 65.1414 145.845 65.1021C145.699 65.0337 145.536 65.0337 145.39 65.1021L144.266 65.3619C144.117 65.4128 143.989 65.5247 143.908 65.6765C143.876 65.7606 143.859 65.8514 143.859 65.9431C143.859 66.0349 143.876 66.1256 143.908 66.2098C143.951 66.3812 144.049 66.5276 144.183 66.6201C144.329 66.6818 144.491 66.6818 144.637 66.6201H144.577Z" fill="#4C3D36"/>
<path d="M141.998 67.3693C142.01 67.5103 142.01 67.6523 141.998 67.7933V67.6018C141.998 67.7796 141.998 67.9574 141.998 68.1352C141.975 68.289 141.975 68.4463 141.998 68.6001C142.019 68.6854 142.056 68.7647 142.105 68.8326C142.146 68.9085 142.204 68.97 142.273 69.0104C142.415 69.1007 142.582 69.1252 142.739 69.0788C142.812 69.0552 142.881 69.0153 142.94 68.9613C143 68.9073 143.049 68.8403 143.086 68.7642L143.158 68.6001C143.182 68.4832 143.182 68.3615 143.158 68.2446V68.4224C143.146 68.3225 143.146 68.2213 143.158 68.1215V68.2993C143.21 67.9974 143.238 67.6907 143.241 67.383C143.238 67.203 143.174 67.0314 143.062 66.9044C143.008 66.84 142.943 66.7886 142.871 66.7534C142.799 66.7182 142.722 66.6997 142.644 66.6992C142.486 66.7032 142.336 66.7767 142.225 66.9044C142.168 66.9654 142.122 67.0395 142.091 67.122C142.06 67.2044 142.045 67.2933 142.046 67.383L141.998 67.3693Z" fill="#4C3D36"/>
<path d="M147.556 69.0493L148.213 69.651C148.265 69.7164 148.331 69.7638 148.405 69.7878C148.476 69.824 148.554 69.8427 148.632 69.8427C148.71 69.8427 148.788 69.824 148.859 69.7878C148.934 69.7679 149.002 69.7197 149.05 69.651C149.108 69.5874 149.154 69.5108 149.185 69.4262C149.216 69.3415 149.231 69.2504 149.23 69.1587V68.9809C149.207 68.8646 149.152 68.7595 149.074 68.6801L148.417 68.0783C148.364 68.0146 148.298 67.9675 148.225 67.9416C148.154 67.9054 148.076 67.8867 147.998 67.8867C147.92 67.8867 147.843 67.9054 147.771 67.9416C147.699 67.9708 147.634 68.0175 147.58 68.0783C147.469 68.2119 147.406 68.387 147.4 68.5707V68.7484C147.426 68.8638 147.48 68.9683 147.556 69.0493V69.0493Z" fill="#4C3D36"/>
<path d="M150.071 66.3041H150.263H150.43H150.574C150.618 66.2754 150.659 66.2385 150.693 66.1947C150.752 66.1377 150.794 66.0613 150.813 65.9759C150.813 65.8665 150.813 65.9759 150.813 65.8118C150.831 65.7218 150.831 65.6282 150.813 65.5383V65.3742L150.717 65.2374L150.597 65.128L150.454 65.0596C150.399 65.0471 150.342 65.0471 150.287 65.0596H150.119L149.976 65.128C149.904 65.1648 149.846 65.2272 149.808 65.3058C149.75 65.3663 149.711 65.4487 149.701 65.5383C149.665 65.6533 149.665 65.7788 149.701 65.8938C149.741 66.0703 149.84 66.2221 149.976 66.3178V66.3178L150.131 66.3998C150.209 66.4273 150.292 66.4273 150.37 66.3998C150.452 66.3999 150.531 66.3713 150.597 66.3178C150.663 66.2783 150.721 66.2222 150.765 66.1537C150.812 66.0839 150.849 66.0052 150.872 65.9212V65.7297C150.869 65.6098 150.84 65.4925 150.789 65.3878L150.693 65.2511C150.62 65.1668 150.53 65.1055 150.43 65.0733H150.358L150.502 65.1417L150.621 65.2511L150.717 65.3878V65.552V65.7297V65.9075V66.0716L150.621 66.2084L150.502 66.3178L150.37 66.3041H150.215H150.059H149.916L149.796 66.1947L149.701 66.058L149.641 65.5383L149.796 65.2374L149.916 65.128L150.059 65.0596H150.227H150.37C150.292 65.0322 150.209 65.0322 150.131 65.0596C150.056 65.0393 149.979 65.0393 149.904 65.0596C149.84 65.1079 149.783 65.168 149.737 65.2374C149.689 65.3072 149.653 65.3859 149.629 65.4699V65.6614C149.633 65.7813 149.661 65.8986 149.713 66.0032L149.808 66.14C149.884 66.2198 149.974 66.2804 150.071 66.3178V66.3041Z" fill="#4C3D36"/>
<path d="M151.25 74.5241L151.668 75.249C151.747 75.4035 151.876 75.5164 152.027 75.5635C152.104 75.5985 152.19 75.5985 152.266 75.5635C152.344 75.5617 152.419 75.533 152.482 75.4814C152.548 75.4394 152.607 75.3828 152.654 75.3147C152.701 75.2466 152.736 75.1685 152.757 75.0849V74.8934C152.79 74.7732 152.79 74.6443 152.757 74.5241L152.35 73.7993C152.269 73.6467 152.141 73.5345 151.991 73.4848C151.913 73.4582 151.83 73.4582 151.752 73.4848C151.671 73.4847 151.592 73.5134 151.525 73.5669C151.392 73.6603 151.294 73.8064 151.25 73.9771V74.1549C151.26 74.2737 151.288 74.3896 151.334 74.4968L151.25 74.5241Z" fill="#4C3D36"/>
<path d="M154.623 74.1795L154.695 74.8496C154.671 74.9341 154.671 75.025 154.695 75.1095C154.712 75.1956 154.755 75.2726 154.815 75.3283C154.867 75.3948 154.933 75.4463 155.006 75.4787C155.085 75.4992 155.166 75.4992 155.245 75.4787H155.401C155.502 75.4521 155.594 75.39 155.664 75.3009L155.759 75.1642C155.812 75.0601 155.841 74.9425 155.843 74.8223L155.771 74.1522C155.789 74.0667 155.789 73.9777 155.771 73.8923C155.746 73.8029 155.701 73.7227 155.64 73.6598C155.585 73.599 155.52 73.5523 155.448 73.5231C155.374 73.5027 155.296 73.5027 155.221 73.5231H155.066C154.966 73.5467 154.874 73.6038 154.803 73.6872L154.707 73.8376C154.649 73.939 154.62 74.0584 154.623 74.1795V74.1795Z" fill="#4C3D36"/>
<path d="M156.165 72.8315L156.584 73.0093C156.662 73.0298 156.744 73.0298 156.823 73.0093C156.899 72.9986 156.972 72.9707 157.038 72.9272C157.108 72.8832 157.169 72.8226 157.217 72.7494C157.266 72.6823 157.299 72.6024 157.313 72.5169V72.3392C157.315 72.2139 157.286 72.0906 157.229 71.9836L157.146 71.8468C157.068 71.7699 156.979 71.7096 156.883 71.669L156.464 71.5049C156.386 71.4775 156.303 71.4775 156.225 71.5049C156.144 71.5049 156.064 71.5335 155.998 71.587C155.929 71.6274 155.871 71.6889 155.83 71.7648C155.778 71.8308 155.741 71.9107 155.723 71.9973V72.175C155.722 72.294 155.747 72.4112 155.794 72.5169L155.89 72.6537C155.963 72.738 156.053 72.7993 156.153 72.8315H156.165Z" fill="#4C3D36"/>
<path d="M157.734 75.361L157.806 75.5251L157.746 75.3747C157.815 75.548 157.859 75.7326 157.878 75.9217V75.744C157.856 75.8287 157.856 75.9191 157.878 76.0038C157.903 76.0861 157.944 76.161 157.997 76.2226C158.051 76.2842 158.117 76.3309 158.189 76.3594C158.267 76.3794 158.349 76.3794 158.428 76.3594H158.583C158.681 76.322 158.771 76.2614 158.846 76.1816L158.942 76.0448C158.993 75.9401 159.022 75.8229 159.026 75.7029C159.006 75.509 158.975 75.317 158.93 75.1286C158.877 74.9462 158.813 74.768 158.739 74.5952C158.693 74.525 158.641 74.4608 158.583 74.4037C158.522 74.3496 158.453 74.308 158.38 74.2807C158.301 74.2606 158.22 74.2606 158.141 74.2807C158.062 74.2933 157.985 74.3211 157.914 74.3627C157.784 74.4597 157.687 74.6044 157.639 74.773V74.9645C157.642 75.0844 157.671 75.2017 157.722 75.3063L157.734 75.361Z" fill="#4C3D36"/>
<path d="M161.214 75.8921L161.824 76.6033C161.875 76.6686 161.941 76.716 162.015 76.74C162.087 76.7762 162.164 76.7949 162.242 76.7949C162.321 76.7949 162.398 76.7762 162.47 76.74C162.545 76.7201 162.612 76.672 162.661 76.6033C162.719 76.5396 162.764 76.4631 162.795 76.3784C162.826 76.2937 162.841 76.2027 162.84 76.111V75.9332C162.817 75.8168 162.763 75.7117 162.685 75.6323L162.087 74.9212C162.031 74.8554 161.961 74.8081 161.884 74.7844C161.817 74.7331 161.737 74.709 161.656 74.716C161.576 74.711 161.497 74.7349 161.429 74.7844C161.355 74.8084 161.289 74.8559 161.238 74.9212C161.126 75.0483 161.062 75.2198 161.059 75.3998V75.5913C161.089 75.7039 161.143 75.8069 161.214 75.8921V75.8921Z" fill="#4C3D36"/>
<path d="M164.586 79.8086H164.455H164.526L164.407 79.6992L164.479 79.7813L164.395 79.6445V79.7403L164.335 79.5762C164.335 79.5762 164.335 79.5762 164.335 79.6582C164.359 79.7422 164.395 79.8209 164.443 79.8907C164.487 79.9592 164.544 80.0154 164.61 80.0548C164.677 80.1083 164.756 80.1369 164.837 80.1369C164.914 80.1705 164.999 80.1705 165.076 80.1369H165.22C165.308 80.0765 165.382 79.9919 165.435 79.8907V79.7403C165.459 79.6187 165.459 79.4926 165.435 79.371L165.363 79.1522L165.256 78.9881C165.206 78.9337 165.149 78.8877 165.088 78.8513V78.8513C165.036 78.8158 164.98 78.7883 164.921 78.7693V78.7693C164.842 78.7488 164.76 78.7488 164.682 78.7693C164.606 78.7822 164.534 78.8099 164.467 78.8513C164.397 78.8917 164.339 78.9533 164.299 79.0291C164.243 79.0922 164.206 79.1733 164.192 79.2616V79.4394C164.189 79.5646 164.218 79.688 164.275 79.795L164.359 79.9317C164.439 80.0119 164.533 80.0724 164.634 80.1095L164.586 79.8086Z" fill="#4C3D36"/>
<path d="M160.651 80.0775L160.95 80.31C161.017 80.3635 161.096 80.3922 161.177 80.3921C161.255 80.4195 161.339 80.4195 161.416 80.3921C161.494 80.3759 161.565 80.3329 161.62 80.269C161.686 80.2229 161.74 80.1566 161.775 80.0775L161.835 79.9134C161.859 79.7965 161.859 79.6748 161.835 79.5579L161.775 79.3938C161.722 79.2926 161.648 79.208 161.56 79.1476L161.261 78.9151C161.194 78.8616 161.115 78.833 161.034 78.8331C160.956 78.8056 160.873 78.8056 160.795 78.8331C160.717 78.8493 160.646 78.8922 160.591 78.9561C160.525 79.0022 160.471 79.0685 160.436 79.1476V79.3117C160.412 79.4287 160.412 79.5503 160.436 79.6673V79.8314C160.489 79.9326 160.563 80.0172 160.651 80.0775V80.0775Z" fill="#4C3D36"/>
<path d="M152.038 71.3169L152.289 71.4126C152.367 71.44 152.451 71.44 152.528 71.4126C152.606 71.4108 152.681 71.3822 152.744 71.3306C152.815 71.2946 152.874 71.232 152.911 71.1528C152.972 71.0939 153.01 71.0107 153.019 70.9203V70.7425C153.021 70.6216 152.992 70.5027 152.935 70.4006L152.839 70.2639C152.769 70.1768 152.677 70.115 152.576 70.0861L152.325 69.9767C152.247 69.9557 152.165 69.9557 152.086 69.9767C152.011 69.9917 151.939 70.0193 151.871 70.0587C151.802 70.0991 151.744 70.1606 151.703 70.2365C151.648 70.2996 151.61 70.3807 151.596 70.469V70.6468C151.594 70.772 151.623 70.8954 151.68 71.0024L151.775 71.1391C151.849 71.2216 151.939 71.2826 152.038 71.3169V71.3169Z" fill="#4C3D36"/>
<path d="M142.058 61.3357L142.309 61.4315C142.386 61.4665 142.471 61.4665 142.548 61.4315C142.626 61.4315 142.701 61.4027 142.763 61.3494C142.831 61.314 142.89 61.2571 142.931 61.1853C142.986 61.1223 143.024 61.0411 143.038 60.9528V60.7613C143.04 60.6405 143.011 60.5215 142.954 60.4195L142.859 60.2827C142.788 60.1956 142.697 60.1339 142.596 60.1049L142.357 59.9955C142.278 59.9755 142.196 59.9755 142.117 59.9955C142.038 60.0082 141.961 60.0359 141.89 60.0776C141.824 60.1221 141.767 60.1828 141.723 60.2553C141.676 60.3252 141.639 60.4038 141.615 60.4878V60.6793C141.619 60.7993 141.648 60.9165 141.699 61.0212L141.795 61.1579C141.869 61.2404 141.959 61.3014 142.058 61.3357V61.3357Z" fill="#4C3D36"/>
<path d="M101.772 929.383C101.772 929.383 84.7486 930.977 62.7852 959.089" stroke="#4C3D36" stroke-linecap="round" stroke-linejoin="round"/>
<path d="M89.9139 934.379C89.9139 934.379 101.719 956.492 91.0559 960.38C81.5083 963.326 79.9148 946.741 89.9139 934.379Z" stroke="#4C3D36" stroke-linecap="round" stroke-linejoin="round"/>
<path d="M89.3281 953.682C89.3281 953.682 85.3444 947.88 89.8593 934.379" stroke="#4C3D36" stroke-linecap="round" stroke-linejoin="round"/>
<path d="M65.4283 993.957C65.7478 994.104 66.1002 994.128 66.433 994.027C66.7657 993.926 67.0608 993.704 67.2741 993.395C70.4212 988.839 81.4561 970.523 65.269 956.003C48.7499 941.211 37.7948 962.473 35.5373 967.455C35.4031 967.75 35.342 968.081 35.3607 968.413C35.3795 968.745 35.4773 969.065 35.6436 969.338L38.711 974.335C38.711 974.335 38.8704 981.625 46.1207 988.489C48.2432 990.477 50.7642 991.832 53.4573 992.431C56.1504 993.03 58.9315 992.855 61.5509 991.922C61.5509 991.922 63.463 993.045 65.4283 993.957Z" fill="#F3D7C3"/>
<path d="M57.8174 955.855C56.2671 961.33 55.7541 967.12 56.3128 972.839C56.8715 978.559 58.4889 984.076 61.0575 989.025" stroke="#4C3D36" stroke-linecap="round" stroke-linejoin="round"/>
<path d="M40.7285 972.863C40.7285 972.863 49.6122 976.098 56.3446 972.863" stroke="#4C3D36" stroke-linecap="round" stroke-linejoin="round"/>
<path d="M52.0415 988.869C52.0415 988.869 48.2171 983.993 47.832 974.41" stroke="#4C3D36" stroke-linecap="round" stroke-linejoin="round"/>
<path d="M42.6641 981.539C43.5379 982.201 44.558 982.567 45.6061 982.594C46.6542 982.621 47.6875 982.308 48.5865 981.691" stroke="#4C3D36" stroke-linecap="round" stroke-linejoin="round"/>
<path d="M99.9537 1034.65C101.791 1034.15 103.718 1034.28 105.49 1035.03C107.262 1035.77 108.801 1037.11 109.913 1038.85C109.991 1038.96 110.041 1039.09 110.058 1039.23C110.076 1039.37 110.06 1039.51 110.012 1039.64C109.964 1039.77 109.886 1039.88 109.787 1039.97C109.688 1040.05 109.571 1040.1 109.448 1040.11C106.938 1040.37 104.203 1040.75 99.635 1035.98C99.5458 1035.88 99.4815 1035.76 99.4486 1035.62C99.4157 1035.49 99.4156 1035.34 99.4482 1035.21C99.4807 1035.07 99.5449 1034.95 99.6338 1034.85C99.7227 1034.75 99.8332 1034.68 99.9537 1034.65V1034.65Z" fill="#F3D7C3"/>
<path d="M80.6448 1026.56C77.1128 1024.08 74.3534 1020.39 72.7568 1016.01C71.1602 1011.63 70.8072 1006.79 71.7478 1002.17C71.7855 1001.98 71.8641 1001.8 71.9771 1001.64C72.09 1001.49 72.2339 1001.37 72.396 1001.3C72.5582 1001.22 72.7339 1001.19 72.9079 1001.21C73.0819 1001.23 73.2489 1001.3 73.3944 1001.41C78.3475 1005.09 85.6908 1013.64 82.2648 1025.93C82.2107 1026.1 82.1219 1026.27 82.0051 1026.4C81.8883 1026.53 81.7465 1026.63 81.5905 1026.7C81.4344 1026.76 81.2682 1026.78 81.1043 1026.75C80.9405 1026.73 80.7834 1026.67 80.6448 1026.56V1026.56Z" fill="#F3D7C3"/>
<path d="M107.787 999.224C107.787 1000.99 106.061 1002.14 104.507 1002.14C102.954 1002.14 101.719 1001.26 101.719 999.497C101.719 998.65 102.012 997.837 102.535 997.237C103.057 996.636 103.767 996.297 104.507 996.293C106.061 996.293 107.787 997.447 107.787 999.224Z" fill="#F3D7C3"/>
<path d="M129.883 996.3C129.883 996.3 132.193 977.923 113.443 974.718C108.344 973.989 102.448 978.303 104.693 984.955C106.937 991.607 122.845 985.76 118.383 968.507C114.639 954.003 95.3574 955.552 95.3574 955.552" stroke="#4C3D36" stroke-linecap="round" stroke-linejoin="round"/>
<path d="M164.289 56.9081C164.289 56.9081 173.305 24.6652 189.081 37.1645C199.704 45.5935 186.571 72.8548 197.805 75.9075C207.432 78.5197 207.525 63.6664 218.879 66.9469C230.711 70.3489 232.37 77.5781 231.321 86.9031" stroke="#4C3D36" stroke-linecap="round" stroke-linejoin="round"/>
<path d="M221.162 87.5871C222.95 86.1832 224.443 84.3415 225.531 82.1956C228.997 81.6185 235.118 81.3755 238.571 78.0039C239.977 79.1085 241.456 80.0884 242.993 80.9351C242.993 80.9351 244.878 89.4552 247.587 98.3854C246.961 101.256 245.786 103.932 244.148 106.222C244.148 106.222 239.607 106.222 231.732 110.186C229.896 109.478 228.193 108.381 226.713 106.951C226.713 106.951 223.459 93.738 221.162 87.5871Z" fill="white" stroke="#4C3D36" stroke-linecap="round" stroke-linejoin="round"/>
<path d="M696.355 212.79C696.355 212.79 681.217 212.638 646.732 215.964C612.246 219.29 587.733 245.99 577.27 263.653C592.54 265.035 651.021 259.415 696.355 212.79Z" stroke="#4C3D36" stroke-linecap="round" stroke-linejoin="round"/>
<path d="M609.975 260.402C609.975 260.402 599.126 276.136 590.68 280.343C582.235 284.55 561.918 299.586 554.986 315.441C560.139 300.011 566.499 280.951 577.268 263.652C588.237 263.8 599.192 262.711 609.975 260.402V260.402Z" stroke="#4C3D36" stroke-linecap="round" stroke-linejoin="round"/>
<path d="M553.34 321.045C553.34 321.045 562.967 285.568 577.242 263.652" stroke="#4C3D36" stroke-linecap="round" stroke-linejoin="round"/>
<path d="M654.825 553.733L663.669 554.644L672.526 555.555C672.85 555.598 673.159 555.742 673.417 555.971C673.675 556.2 673.874 556.505 673.991 556.854C674.109 557.203 674.141 557.581 674.084 557.949C674.027 558.317 673.883 558.661 673.668 558.942L668.011 567.523L662.354 576.088C662.175 576.402 661.925 576.654 661.631 576.817C661.337 576.981 661.01 577.05 660.684 577.017C660.358 576.984 660.046 576.851 659.781 576.631C659.516 576.411 659.309 576.114 659.18 575.769L655.994 566.293L652.807 556.816C652.063 554.674 652.66 553.383 654.825 553.733Z" stroke="#4C3D36" stroke-linecap="round" stroke-linejoin="round"/>
<path d="M656.137 575.192C656.67 577.279 657.75 579.129 659.231 580.493C660.672 581.736 662.485 582.274 664.273 581.989C666.06 581.705 667.676 580.62 668.765 578.974C668.998 578.627 669.202 578.256 669.376 577.865C671.003 578.044 672.64 577.645 674.062 576.723C675.485 575.802 676.625 574.402 677.329 572.714C678.032 571.025 678.264 569.131 677.993 567.286C677.723 565.442 676.963 563.738 675.816 562.405V562.329C676.286 561.619 676.628 560.81 676.824 559.949C677.02 559.087 677.066 558.19 676.958 557.309C676.851 556.427 676.593 555.578 676.199 554.811C675.805 554.044 675.282 553.373 674.661 552.836C674.115 552.37 673.504 552.011 672.855 551.773L671.527 551.5C670.484 551.604 669.472 551.957 668.557 552.538C667.642 553.119 666.844 553.914 666.215 554.872C663.759 558.593 663.453 563.073 666.627 565.822" fill="#F3D7C3"/>
<path d="M658.891 580.188C657.358 578.836 656.357 576.843 656.108 574.647C655.859 572.452 656.382 570.233 657.563 568.478C660.019 564.757 663.551 563.056 666.725 565.805" fill="#F3D7C3"/>
<path d="M652.834 553.927C652.834 553.927 628.733 550.996 607.898 516.05C586.453 480.071 564.648 481.635 564.648 481.635" stroke="#4C3D36" stroke-linecap="round" stroke-linejoin="round"/>
<path d="M627.817 541.84C627.817 541.84 620.832 553.306 632.531 565.623C638.586 549.084 627.817 541.84 627.817 541.84Z" stroke="#4C3D36" stroke-linecap="round" stroke-linejoin="round"/>
<path d="M594.578 498.145C594.578 498.145 584.3 505.738 591.006 522.201C602.094 509.505 594.578 498.145 594.578 498.145Z" stroke="#4C3D36" stroke-linecap="round" stroke-linejoin="round"/>
<path d="M613.143 521.549C613.143 521.549 623.168 529.538 633.937 516.142C619.437 509.217 613.143 521.549 613.143 521.549Z" stroke="#4C3D36" stroke-linecap="round" stroke-linejoin="round"/>
<path d="M581.299 486.417C581.299 486.417 592.666 491.565 600.46 475.709C584.951 472.763 581.299 486.417 581.299 486.417Z" stroke="#4C3D36" stroke-linecap="round" stroke-linejoin="round"/>
<path d="M679.204 390.296C685.06 382.612 697.051 404.481 682.391 419.76C664.942 437.985 641.744 409.919 652.168 399.075C662.592 388.231 684.808 417.3 667.359 435.403C652.752 450.681 634.772 434.963 642.01 429.024C649.247 423.086 658.117 445.73 639.048 459.703C639.048 459.703 623.114 471.26 605.426 465.383C590.434 460.401 575.469 475.103 581.922 487.207" stroke="#4C3D36" stroke-linecap="round" stroke-linejoin="round"/>
<path d="M575.226 11C575.226 11 571.534 56.5621 530.316 56.3951C532.109 47.8902 539.173 35.7099 554.617 32.8546C570.06 29.9994 575.226 11 575.226 11Z" stroke="#4C3D36" stroke-linecap="round" stroke-linejoin="round"/>
<path d="M530.318 56.3945L415.361 136.614" stroke="#4C3D36" stroke-linecap="round" stroke-linejoin="round"/>
<path d="M559.026 91.2497C559.026 91.2497 548.775 56.6072 516.799 65.4311C519.574 71.6579 527.037 79.6313 539.493 78.5682C551.948 77.5051 559.026 91.2497 559.026 91.2497Z" stroke="#4C3D36" stroke-linecap="round" stroke-linejoin="round"/>
<path d="M538.002 97.4914C538.002 97.4914 514.977 65.036 483.824 89.0928C488.963 94.4995 499.759 99.648 512.693 92.8593C525.626 86.0705 538.002 97.4914 538.002 97.4914Z" stroke="#4C3D36" stroke-linecap="round" stroke-linejoin="round"/>
<path d="M520.769 35.1367C520.769 35.1367 528.537 63.0967 504.184 74.715C503.387 69.1868 504.888 59.9833 513.386 53.8931C521.885 47.803 520.769 35.1367 520.769 35.1367Z" stroke="#4C3D36" stroke-linecap="round" stroke-linejoin="round"/>
<path d="M508.541 104.552C508.541 104.552 485.648 129.308 461.4 104.689C466.327 100.74 476.007 97.7329 486.445 105.22C496.882 112.708 508.541 104.552 508.541 104.552Z" stroke="#4C3D36" stroke-linecap="round" stroke-linejoin="round"/>
<path d="M493.335 58.5234C493.335 58.5234 471.916 66.1171 476.803 91.9357C480.667 89.8094 485.687 83.9775 485.262 73.9842C484.837 63.9909 493.335 58.5234 493.335 58.5234Z" stroke="#4C3D36" stroke-linecap="round" stroke-linejoin="round"/>
<path d="M670.215 88.4387C670.215 88.4387 677.187 85.1734 683.136 88.2868C689.085 91.4003 690.652 97.8093 687.318 104.811C683.985 111.812 675.686 128.625 657.945 115.563C658.888 113.407 659.353 112.42 659.353 112.42C659.353 112.42 669.711 121.532 678.727 111.098C686.283 102.335 688.66 87.9679 668.808 92.3571C669.398 91.1125 669.87 89.7988 670.215 88.4387V88.4387Z" stroke="#4C3D36" stroke-linecap="round" stroke-linejoin="round"/>
<path d="M605.56 49.3203C630.037 53.7232 653.706 62.7349 675.606 75.9894C672.394 86.1758 668.496 96.0621 663.947 105.559C659.858 113.852 655.489 123.146 643.644 118.954C642.807 122.782 642.621 123.359 642.621 123.359C642.621 123.359 624.894 119.896 611.482 111.376C611.947 109.007 612.252 106.82 612.252 106.82C612.252 106.82 599.372 103.919 600.979 83.1274C601.818 71.7505 603.349 60.4542 605.56 49.3203V49.3203Z" fill="white" stroke="#4C3D36" stroke-linecap="round" stroke-linejoin="round"/>
<path d="M606.874 73.318C606.905 73.1202 606.988 72.9376 607.11 72.7932C607.233 72.6489 607.39 72.5493 607.562 72.5071C607.734 72.4648 607.913 72.4818 608.076 72.5558C608.24 72.6299 608.38 72.7577 608.48 72.9231C610.087 75.5657 614.058 79.3018 623.857 79.8941C633.657 80.4864 670.799 74.6697 665.62 86.7132C662.035 96.0079 659.14 103.161 655.315 108.932C654.187 110.655 652.661 111.982 650.908 112.766C649.155 113.549 647.247 113.757 645.396 113.367C634.287 110.769 623.452 106.823 613.075 101.597C610.92 100.389 609.211 98.343 608.255 95.8257C606.011 89.7507 604.537 87.0322 606.874 73.318Z" fill="#F3D7C3"/>
<path d="M667.493 45.8567C669.246 36.319 672.805 36.7442 673.615 36.9417C674.425 37.1391 677.838 38.3693 676.098 47.907C675.112 53.5812 672.72 58.8112 669.206 62.9728C669.16 63.0259 669.103 63.0647 669.04 63.0856C668.977 63.1064 668.911 63.1085 668.847 63.0918C668.783 63.0751 668.724 63.04 668.676 62.99C668.627 62.94 668.59 62.8765 668.569 62.8058C666.986 57.3457 666.617 51.5209 667.493 45.8567V45.8567Z" fill="#F3D7C3"/>
<path d="M684.214 66.6332C690.854 64.6132 690.429 61.3024 690.256 60.5582C690.083 59.814 689.061 56.7158 682.382 58.7357C678.468 59.8912 674.916 62.2802 672.13 65.6308C672.082 65.6906 672.048 65.7636 672.032 65.8428C672.016 65.922 672.018 66.0046 672.038 66.0826C672.058 66.1605 672.096 66.2313 672.147 66.2878C672.198 66.3444 672.261 66.3849 672.329 66.4054C676.214 67.5984 680.297 67.6767 684.214 66.6332V66.6332Z" fill="#F3D7C3"/>
<path d="M653.915 889.095L645.509 875.502C645.379 875.263 645.204 875.061 644.996 874.911C644.788 874.761 644.553 874.667 644.309 874.636C644.064 874.605 643.817 874.639 643.585 874.733C643.354 874.828 643.144 874.982 642.973 875.183L577.281 951.439C576.499 952.428 576.035 953.693 575.968 955.024C575.9 956.356 576.232 957.674 576.91 958.759V958.759C577.193 959.281 577.57 959.727 578.015 960.068C578.461 960.409 578.965 960.638 579.494 960.738C580.024 960.839 580.565 960.809 581.084 960.651C581.602 960.493 582.085 960.211 582.5 959.823L653.636 892.375C654.026 891.963 654.27 891.401 654.322 890.796C654.373 890.191 654.228 889.586 653.915 889.095Z" stroke="#4C3D36" stroke-linecap="round" stroke-linejoin="round"/>
<path d="M651.548 870.793C651.359 870.487 651.079 870.271 650.761 870.187C650.442 870.103 650.108 870.157 649.821 870.337L645.917 872.782C645.699 872.933 645.511 873.135 645.366 873.375C645.221 873.615 645.121 873.888 645.075 874.175C645.029 874.462 645.036 874.757 645.096 875.04C645.157 875.324 645.269 875.589 645.426 875.82L653.805 889.26C653.917 889.509 654.086 889.718 654.294 889.864C654.503 890.01 654.743 890.087 654.987 890.087C655.231 890.087 655.471 890.01 655.68 889.864C655.888 889.718 656.057 889.509 656.169 889.26L658.732 884.826C658.942 884.466 659.054 884.043 659.054 883.611C659.054 883.178 658.942 882.755 658.732 882.396L651.548 870.793Z" stroke="#4C3D36" stroke-linecap="round" stroke-linejoin="round"/>
<path d="M655.945 861.592C654.444 863.709 653.561 866.312 653.422 869.033C653.232 871.245 653.7 873.466 654.75 875.336C657.406 879.604 663.236 881.29 669.357 875.746C675.479 870.203 680.458 857.521 676.767 846.602C676.554 850.414 674.815 855.851 665.759 856.61C661.762 856.959 658.601 857.901 655.945 861.592Z" stroke="#4C3D36" stroke-linecap="round" stroke-linejoin="round"/>
<path d="M668.082 871.494C671.166 868.867 673.448 865.195 674.602 861" stroke="#4C3D36" stroke-linecap="round" stroke-linejoin="round"/>
<path d="M657.592 872.782C657.592 872.782 667.432 870.778 673.713 857.504" stroke="#4C3D36" stroke-linecap="round" stroke-linejoin="round"/>
<path d="M656.463 867.239C656.463 867.239 658.07 862.333 668.042 859.387" stroke="#4C3D36" stroke-linecap="round" stroke-linejoin="round"/>
<path d="M602.244 935.229L649.544 890.973" stroke="#4C3D36" stroke-linecap="round" stroke-linejoin="round"/>
<path d="M617.172 916.466L647.089 888.445" stroke="#4C3D36" stroke-linecap="round" stroke-linejoin="round"/>
<path d="M578.305 955.711C578.532 956.125 578.834 956.479 579.19 956.75C579.546 957.02 579.949 957.201 580.371 957.28C580.793 957.359 581.225 957.335 581.638 957.208C582.051 957.082 582.435 956.856 582.766 956.546" stroke="#4C3D36" stroke-linecap="round" stroke-linejoin="round"/>
<path d="M656.275 883.901L650.525 874.621" stroke="#4C3D36" stroke-linecap="round" stroke-linejoin="round"/>
<path d="M700.441 855.443C700.441 858.101 697.785 859.862 695.475 859.862C693.164 859.862 691.252 858.526 691.252 855.853C691.252 854.572 691.697 853.344 692.489 852.438C693.281 851.532 694.355 851.023 695.475 851.023C697.812 851.054 700.441 852.77 700.441 855.443Z" stroke="#4C3D36" stroke-linecap="round" stroke-linejoin="round"/>
<path d="M715.609 876.338C715.609 878.115 713.87 879.269 712.329 879.269C710.789 879.269 709.527 878.388 709.527 876.626C709.526 876.205 709.597 875.787 709.737 875.398C709.877 875.008 710.084 874.654 710.344 874.356C710.605 874.058 710.914 873.822 711.255 873.662C711.596 873.501 711.961 873.42 712.329 873.422C713.87 873.422 715.609 874.576 715.609 876.338Z" stroke="#4C3D36" stroke-linecap="round" stroke-linejoin="round"/>
<path d="M654.107 79.7617H65.9827C56.5635 79.7617 48.9277 88.4949 48.9277 99.2677V923.668C48.9277 934.441 56.5635 943.174 65.9827 943.174H654.107C663.526 943.174 671.161 934.441 671.161 923.668V99.2677C671.161 88.4949 663.526 79.7617 654.107 79.7617Z" fill="white" stroke="#4C3D36" stroke-linecap="round" stroke-linejoin="round"/>
<path d="M85.832 83.1812L92.6121 118.796C92.9576 120.604 93.9167 122.18 95.2784 123.179C96.6401 124.178 98.2929 124.517 99.8733 124.123V124.123C101.454 123.727 102.832 122.63 103.705 121.073C104.579 119.516 104.875 117.625 104.53 115.818L96.3205 72.707" stroke="#4C3D36" stroke-linecap="round" stroke-linejoin="round"/>
<path d="M100.295 93.5746L98.129 82.2425L95.9492 70.7484C95.6993 69.442 95.2268 68.2047 94.5587 67.1071C93.8906 66.0095 93.0401 65.0732 92.0556 64.3516C91.0711 63.63 89.972 63.1373 88.821 62.9016C87.67 62.6659 86.4897 62.6918 85.3475 62.9778V62.9778C84.2045 63.26 83.1214 63.7973 82.1603 64.559C81.1991 65.3207 80.3789 66.2918 79.7464 67.4167C79.114 68.5416 78.6818 69.7981 78.4746 71.1143C78.2674 72.4305 78.2894 73.7805 78.5391 75.087L78.8364 76.7059" stroke="#4C3D36" stroke-linecap="round" stroke-linejoin="round"/>
<path d="M91.3798 71.9609C91.1289 70.6577 90.4372 69.521 89.456 68.799C88.4747 68.0771 87.2835 67.8287 86.1426 68.108" stroke="#4C3D36" stroke-linecap="round" stroke-linejoin="round"/>
</svg>
