<?xml version="1.0" encoding="utf-8"?>
<!-- Generator: Adobe Illustrator 26.3.1, SVG Export Plug-In . SVG Version: 6.00 Build 0)  -->
<svg version="1.1" id="Layer_1" xmlns="http://www.w3.org/2000/svg" xmlns:xlink="http://www.w3.org/1999/xlink" x="0px" y="0px"
	 viewBox="0 0 1442 120" style="enable-background:new 0 0 1442 120;" xml:space="preserve">
<style type="text/css">
	.st0{fill:none;stroke:#4F3C35;stroke-linecap:round;stroke-linejoin:round;stroke-miterlimit:10;}
	.st1{fill:#F7D5BF;}
</style>
<g>
	<g>
		<path class="st0" d="M399.4,106.4c0,0-0.1-1.3-2.1-3.6"/>
		<path class="st0" d="M402.7,105.8c0,0,0.6-1.3,0.2-4.3"/>
		<path class="st0" d="M406.5,105.8c0,0,0.9-0.5,1.8-3.5"/>
	</g>
	<g>
		<path class="st0" d="M104.4,106.2c0,0-0.1-1.3-2.1-3.6"/>
		<path class="st0" d="M107.7,105.7c0,0,0.6-1.3,0.2-4.3"/>
		<path class="st0" d="M111.4,105.7c0,0,0.9-0.5,1.8-3.5"/>
	</g>
	<g>
		<path class="st0" d="M1089.7,111c0,0-0.1-1.3-2.1-3.6"/>
		<path class="st0" d="M1093,110.4c0,0,0.6-1.3,0.2-4.3"/>
		<path class="st0" d="M1096.7,110.4c0,0,0.9-0.5,1.8-3.5"/>
	</g>
	<g>
		<path class="st0" d="M678.4,106.1c0,0-0.1-1.3-2.1-3.6"/>
		<path class="st0" d="M681.7,105.5c0,0,0.6-1.3,0.2-4.3"/>
		<path class="st0" d="M685.4,105.5c0,0,0.9-0.5,1.8-3.5"/>
	</g>
	<path class="st0" d="M0.8,65.7c0,0,53.6-15,159-13c48.2,0.9,203.6-30.3,348.1-2.1"/>
	<path class="st0" d="M1441.2,60.6c-42.8-14.3-190.2-13.6-271.5-8.3c-81.8,5.3-127.7,0-218.6-16.9c-31-5.8-125.5-16.4-216.6,10.5"/>
	<g>
		<path class="st0" d="M394.8,35.4c0,0,135.4-53.9,356.8-7.6"/>
	</g>
	<g>
		<path class="st0" d="M836.2,48.8c0,0-0.1-1.3-2.1-3.6"/>
		<path class="st0" d="M839.5,48.3c0,0,0.6-1.3,0.2-4.3"/>
		<path class="st0" d="M843.2,48.3c0,0,0.9-0.5,1.8-3.5"/>
	</g>
	<g>
		<path class="st0" d="M928.6,89.3c0,0-0.1-1.3-2.1-3.6"/>
		<path class="st0" d="M931.9,88.7c0,0,0.6-1.3,0.2-4.3"/>
		<path class="st0" d="M935.6,88.7c0,0,0.9-0.5,1.8-3.5"/>
	</g>
	<g>
		<path class="st0" d="M282.4,77.8c0,0-0.1-1.3-2.1-3.6"/>
		<path class="st0" d="M285.7,77.2c0,0,0.6-1.3,0.2-4.3"/>
		<path class="st0" d="M289.4,77.2c0,0,0.9-0.5,1.8-3.5"/>
	</g>
	<g>
		<path class="st0" d="M518.7,34c0,0-0.1-1.3-2.1-3.6"/>
		<path class="st0" d="M522,33.5c0,0,0.6-1.3,0.2-4.3"/>
		<path class="st0" d="M525.7,33.5c0,0,0.9-0.5,1.8-3.5"/>
	</g>
	<g>
		<path class="st0" d="M1404.7,84.4c0,0-0.1-1.3-2.1-3.6"/>
		<path class="st0" d="M1408,83.8c0,0,0.6-1.3,0.2-4.3"/>
		<path class="st0" d="M1411.7,83.8c0,0,0.9-0.5,1.8-3.5"/>
	</g>
	<g>
		<path class="st1" d="M1075,35.1c7.2-4.4,12.8,13.3,9.1,26.7C1081.8,52.3,1067.9,39.5,1075,35.1z"/>
		<path class="st0" d="M1078.5,41.9c0,0,8.3,13.7,5.7,19.8"/>
		<path class="st1" d="M1098.8,34.6c10.5,5.6-6.6,15.1-14.1,26.2C1085.7,54.7,1088,28.8,1098.8,34.6z"/>
		<path class="st0" d="M1084.6,61.3c6.1-16,11.7-20.7,11.7-20.7"/>
	</g>
</g>
</svg>
