<?xml version="1.0" encoding="utf-8"?>
<!-- Generator: Adobe Illustrator 26.3.1, SVG Export Plug-In . SVG Version: 6.00 Build 0)  -->
<svg version="1.1" id="Layer_1" xmlns="http://www.w3.org/2000/svg" xmlns:xlink="http://www.w3.org/1999/xlink" x="0px" y="0px"
	 viewBox="0 0 45 65" style="enable-background:new 0 0 45 65;" xml:space="preserve">
<style type="text/css">
	.st0{fill:#D76A6A;}
	.st1{font-family:'Orkney-Bold';}
	.st2{font-size:17px;}
	.st3{opacity:0.5;fill:#4C3D36;enable-background:new    ;}
</style>
<g>
	<text transform="matrix(1 0 0 1 0.1541 15.3831)" class="st0 st1 st2">scroll</text>
	<g>
		<g>
			<path class="st0" d="M25.3,64.5L25.3,64.5c-1.3,0-2.3-1-2.3-2.3V27.8c0-1.3,1-2.3,2.3-2.3l0,0c1.3,0,2.3,1,2.3,2.3v34.4
				C27.5,63.5,26.5,64.5,25.3,64.5z"/>
			<path class="st3" d="M25.3,64.5c0,0,0.8,0.2,1.6-0.7c0.4-0.4,0.7-1,0.7-1.6V27.8c0-1.3-1-2.3-2.3-2.3c0,0,0.6-0.1,0.5,2.1
				c0,2.8,0,32.6,0.1,33.9C25.9,62.6,25.8,63.8,25.3,64.5z"/>
		</g>
	</g>
</g>
</svg>
