<?xml version="1.0" encoding="utf-8"?>
<!-- Generator: Adobe Illustrator 26.3.1, SVG Export Plug-In . SVG Version: 6.00 Build 0)  -->
<svg version="1.1" id="Layer_1" xmlns="http://www.w3.org/2000/svg" xmlns:xlink="http://www.w3.org/1999/xlink" x="0px" y="0px"
	 viewBox="0 0 1440 120" style="enable-background:new 0 0 1440 120;" xml:space="preserve">
<style type="text/css">
	.st0{fill:none;stroke:#4C3D36;stroke-linecap:round;stroke-linejoin:round;stroke-miterlimit:10;}
	.st1{fill:#F3D7C3;}
</style>
<g>
	<g>
		<g>
			<path class="st0" d="M462.91,105.91c0,0-0.08-1.26-2.07-3.65"/>
			<path class="st0" d="M466.22,105.38c0,0,0.6-1.26,0.24-4.34"/>
			<path class="st0" d="M469.94,105.38c0,0,0.89-0.52,1.84-3.49"/>
		</g>
		<g>
			<path class="st0" d="M251.39,95.35c0,0-0.08-1.26-2.07-3.65"/>
			<path class="st0" d="M254.7,94.81c0,0,0.6-1.26,0.24-4.34"/>
			<path class="st0" d="M258.42,94.81c0,0,0.89-0.52,1.84-3.49"/>
		</g>
		<g>
			<path class="st0" d="M1013.08,106.12c0,0-0.08-1.26-2.07-3.65"/>
			<path class="st0" d="M1016.39,105.58c0,0,0.6-1.26,0.24-4.34"/>
			<path class="st0" d="M1020.12,105.58c0,0,0.89-0.52,1.84-3.49"/>
		</g>
		<g>
			<path class="st0" d="M688.02,95.23c0,0-0.08-1.26-2.07-3.65"/>
			<path class="st0" d="M691.33,94.69c0,0,0.6-1.26,0.24-4.34"/>
			<path class="st0" d="M695.05,94.69c0,0,0.89-0.52,1.84-3.49"/>
		</g>
		<path class="st0" d="M1.45,77.74c0,0,53.76-23.66,157.86-8.93c47.41,6.71,55.41-37.43,138.17-9"/>
		<path class="st0" d="M1438.55,66c-42.54-14.18-195.89-13.56-276.3-4.52c-116.03,13.04-109.06-49.42-269.59-54.29
			c-21.36-0.65-83.89-5.91-174.3,20.84"/>
		<path class="st0" d="M392.77,44.73c0,0,134.48-53.53,354.29-7.54"/>
		<g>
			<path class="st1" d="M639.09,1.67c5.47-3.35,9.74,10.12,6.96,20.29C644.2,14.72,633.63,5.02,639.09,1.67z"/>
			<path class="st0" d="M641.7,6.87c0,0,6.33,10.39,4.35,15.1"/>
			<path class="st1" d="M657.19,1.29c7.98,4.27-5.02,11.52-10.7,19.91C647.16,16.58,648.92-3.13,657.19,1.29z"/>
			<path class="st0" d="M646.32,21.62c4.64-12.17,8.9-15.73,8.9-15.73"/>
		</g>
		<g>
			<path class="st0" d="M306.92,45.51c8.57-5.53,10.05-6.09,20.63-7.71c13.54-2.08,45.24-1.77,65.21,6.78"/>
			<path class="st0" d="M334.14,46.65c0,0-8.6-0.51-12.68,0.31c-3.31,0.31-3.08-1.61-6.96-1c-3.88,0.61-6.94-1.15-10.51-0.12
				c-3.57,1.03-8.65,5.14-8.65,5.14s-0.2,1.73,6.83,1.33"/>
			<path class="st1" d="M300.29,18.41c4.07-4.5,13.11,11.63,15.66,21.27C311,34.63,297.39,21.63,300.29,18.41z"/>
			<path class="st0" d="M304.68,23.92c0,0,10.66,10.97,11.27,15.76"/>
			<path class="st1" d="M307.92,6.07c4.15-1.28,8.69,23.22,8.03,32.78C314.31,34.75,302.41,7.76,307.92,6.07z"/>
			<path class="st0" d="M316.02,39.28c-0.09-5.56-6.44-27.39-6.44-27.39"/>
			<path class="st1" d="M317.53,9.59c5.81-0.61-0.66,26.37-1.58,30.09C316.03,33.97,314.01,9.96,317.53,9.59z"/>
			<path class="st0" d="M317.69,14.33c0,0-0.13,20.1-1.67,24.94"/>
		</g>
		<g>
			<path class="st0" d="M808.05,51.68c0,0-0.08-1.26-2.07-3.65"/>
			<path class="st0" d="M811.36,51.15c0,0,0.6-1.26,0.24-4.34"/>
			<path class="st0" d="M815.08,51.15c0,0,0.89-0.52,1.84-3.49"/>
		</g>
		<g>
			<path class="st0" d="M878.34,82.45c0,0-0.08-1.26-2.07-3.65"/>
			<path class="st0" d="M881.64,81.91c0,0,0.6-1.26,0.24-4.34"/>
			<path class="st0" d="M885.37,81.91c0,0,0.89-0.52,1.84-3.49"/>
		</g>
		<g>
			<path class="st0" d="M386.78,73.7c0,0-0.08-1.26-2.07-3.65"/>
			<path class="st0" d="M390.09,73.16c0,0,0.6-1.26,0.24-4.34"/>
			<path class="st0" d="M393.82,73.16c0,0,0.89-0.52,1.84-3.49"/>
		</g>
		<g>
			<path class="st0" d="M961.34,27.61c0,0-0.08-1.26-2.07-3.65"/>
			<path class="st0" d="M964.64,27.07c0,0,0.6-1.26,0.24-4.34"/>
			<path class="st0" d="M968.37,27.07c0,0,0.89-0.52,1.84-3.49"/>
		</g>
		<g>
			<path class="st0" d="M1141.32,86.94c0,0-0.08-1.26-2.07-3.65"/>
			<path class="st0" d="M1144.63,86.41c0,0,0.6-1.26,0.24-4.34"/>
			<path class="st0" d="M1148.36,86.41c0,0,0.89-0.52,1.84-3.49"/>
		</g>
	</g>
	<g>
		<path class="st0" d="M138.82,117.49c0,0-0.08-1.26-2.07-3.65"/>
		<path class="st0" d="M142.13,116.95c0,0,0.6-1.26,0.24-4.34"/>
		<path class="st0" d="M145.86,116.95c0,0,0.89-0.52,1.84-3.49"/>
	</g>
	<g>
		<path class="st0" d="M1387.84,119.35c0,0-0.08-1.26-2.07-3.65"/>
		<path class="st0" d="M1391.15,118.81c0,0,0.6-1.26,0.24-4.34"/>
		<path class="st0" d="M1394.88,118.81c0,0,0.89-0.52,1.84-3.49"/>
	</g>
</g>
</svg>
