<svg width="583" height="114" viewBox="0 0 583 114" fill="none" xmlns="http://www.w3.org/2000/svg">
<path d="M97.2594 95.0305C106.593 95.0305 114.159 87.4641 114.159 78.1305C114.159 68.7969 106.593 61.2305 97.2594 61.2305C87.9258 61.2305 80.3594 68.7969 80.3594 78.1305C80.3594 87.4641 87.9258 95.0305 97.2594 95.0305Z" fill="#F3D7C3"/>
<path d="M486.899 0.589844H273.349C271.93 0.589844 270.779 1.74047 270.779 3.15984V100.17C270.779 101.589 271.93 102.74 273.349 102.74H486.899C488.319 102.74 489.469 101.589 489.469 100.17V3.15984C489.469 1.74047 488.319 0.589844 486.899 0.589844Z" fill="white" stroke="#4C3D36" stroke-linecap="round" stroke-linejoin="round"/>
<path d="M476.64 10.1602H304.82C303.401 10.1602 302.25 11.3108 302.25 12.7302V90.6002C302.25 92.0195 303.401 93.1702 304.82 93.1702H476.64C478.059 93.1702 479.21 92.0195 479.21 90.6002V12.7302C479.21 11.3108 478.059 10.1602 476.64 10.1602Z" fill="white" stroke="#4C3D36" stroke-linecap="round" stroke-linejoin="round"/>
<path d="M294.66 13.6484H280.19C279.958 13.6484 279.77 13.8365 279.77 14.0684V29.1784C279.77 29.4104 279.958 29.5984 280.19 29.5984H294.66C294.892 29.5984 295.08 29.4104 295.08 29.1784V14.0684C295.08 13.8365 294.892 13.6484 294.66 13.6484Z" stroke="#4C3D36" stroke-linecap="round" stroke-linejoin="round"/>
<path d="M294.66 73.7188H280.19C279.958 73.7188 279.77 73.9068 279.77 74.1387V89.2487C279.77 89.4807 279.958 89.6687 280.19 89.6687H294.66C294.892 89.6687 295.08 89.4807 295.08 89.2487V74.1387C295.08 73.9068 294.892 73.7188 294.66 73.7188Z" stroke="#4C3D36" stroke-linecap="round" stroke-linejoin="round"/>
<path d="M287.43 60.6889C292.418 60.6889 296.46 56.646 296.46 51.6589C296.46 46.6718 292.418 42.6289 287.43 42.6289C282.443 42.6289 278.4 46.6718 278.4 51.6589C278.4 56.646 282.443 60.6889 287.43 60.6889Z" stroke="#4C3D36" stroke-linecap="round" stroke-linejoin="round"/>
<path d="M287.429 55.9716C289.809 55.9716 291.739 54.0419 291.739 51.6616C291.739 49.2812 289.809 47.3516 287.429 47.3516C285.049 47.3516 283.119 49.2812 283.119 51.6616C283.119 54.0419 285.049 55.9716 287.429 55.9716Z" fill="#4C3D36"/>
<path d="M83.4297 36.0586C80.5535 34.9229 77.5162 34.248 74.4297 34.0586" stroke="#4C3D36" stroke-linecap="round" stroke-linejoin="round"/>
<path d="M84.9194 32.9202C83.1839 30.5197 81.0816 28.4072 78.6895 26.6602" stroke="#4C3D36" stroke-linecap="round" stroke-linejoin="round"/>
<path d="M88.0002 29.9994C87.4212 27.0566 86.3782 24.2246 84.9102 21.6094" stroke="#4C3D36" stroke-linecap="round" stroke-linejoin="round"/>
<path d="M497.001 47.2617H489.471V56.9717H497.001V47.2617Z" fill="white" stroke="#4C3D36" stroke-linecap="round" stroke-linejoin="round"/>
<path d="M270.78 49.3398H265.33V54.8998H270.78V49.3398Z" fill="#4C3D36" stroke="#4C3D36" stroke-linecap="round" stroke-linejoin="round"/>
<path d="M266.87 51.4102H261.42V52.8202H266.87V51.4102Z" fill="#4C3D36" stroke="#4C3D36" stroke-linecap="round" stroke-linejoin="round"/>
<path d="M95.9297 39.9719V45.4219H101.49V39.9719H95.9297Z" fill="#4C3D36" stroke="#4C3D36" stroke-linecap="round" stroke-linejoin="round"/>
<path d="M97.2598 36.9897V41.4297H100.14V36.9897H97.2598Z" fill="#4C3D36" stroke="#4C3D36" stroke-linecap="round" stroke-linejoin="round"/>
<path d="M98 43.8898V49.3398H99.41V43.8898H98Z" fill="#4C3D36" stroke="#4C3D36" stroke-linecap="round" stroke-linejoin="round"/>
<path d="M266.87 52.1188H236.29C232.71 52.1188 226.64 50.1188 226.64 42.6288C226.64 32.4888 227.52 17.6288 227.52 10.1588C227.52 -1.59124 206.19 -5.01124 206.19 13.6488C206.19 32.3088 204.73 66.6488 204.73 82.0488C204.73 98.9188 182.24 98.3588 182.24 82.5388V19.9988C182.24 5.50877 160 0.588766 160 21.6188V84.5288C160 95.1188 139.26 96.0188 139.26 84.3088C139.26 72.3088 138.67 58.3088 138.67 48.2588C138.67 30.6988 118.25 32.5988 118.25 45.4288V78.4288C118.25 86.7988 98.6797 89.6388 98.6797 76.4288V49.3388" stroke="#4C3D36" stroke-linecap="round" stroke-linejoin="round"/>
<path d="M466.75 75.7915C466.75 75.7915 478.06 75.0015 478.13 74.7915L537.45 44.5015C538.432 43.9368 539.16 43.0166 539.483 41.931C539.806 40.8454 539.7 39.6771 539.187 38.6673C538.673 37.6576 537.792 36.8834 536.725 36.5045C535.657 36.1257 534.485 36.1712 533.45 36.6315L473.92 67.0015C473.87 67.0015 466.75 75.7915 466.75 75.7915Z" fill="white" stroke="#4C3D36" stroke-linecap="round" stroke-linejoin="round"/>
<path d="M532.838 46.8676L528.867 38.9922L524.019 41.4371L527.99 49.3125L532.838 46.8676Z" fill="white" stroke="#4C3D36" stroke-linecap="round" stroke-linejoin="round"/>
<path d="M490.929 64.8984L485.689 67.5384" stroke="#4C3D36" stroke-linecap="round" stroke-linejoin="round"/>
<path d="M43.3704 43.3619C48.6005 43.3619 52.8404 39.122 52.8404 33.8919C52.8404 28.6617 48.6005 24.4219 43.3704 24.4219C38.1403 24.4219 33.9004 28.6617 33.9004 33.8919C33.9004 39.122 38.1403 43.3619 43.3704 43.3619Z" fill="#F3D7C3"/>
<path d="M3.45 43.4195C5.35538 43.4195 6.9 41.8749 6.9 39.9695C6.9 38.0641 5.35538 36.5195 3.45 36.5195C1.54462 36.5195 0 38.0641 0 39.9695C0 41.8749 1.54462 43.4195 3.45 43.4195Z" fill="#F3D7C3"/>
<path d="M319.539 72.7593C328.209 53.6593 351.879 39.7593 372.639 47.5593C377.52 49.3459 381.634 52.7613 384.289 57.2293C387.419 62.5693 388.779 68.7493 391.939 74.0793C394.939 79.1993 399.579 83.5793 405.709 84.3093C412.559 85.1193 419.269 81.3093 425.389 78.8193C437.669 73.8193 453.059 68.8193 464.959 77.5093C465.533 77.8383 466.214 77.9283 466.854 77.76C467.493 77.5916 468.041 77.1783 468.379 76.6093C468.698 76.0329 468.782 75.3559 468.615 74.7189C468.447 74.082 468.04 73.5341 467.479 73.1893C456.709 65.2793 442.329 67.1893 430.539 71.4793C427.199 72.6793 423.919 74.0493 420.639 75.4193C417.386 76.9369 414.002 78.1585 410.529 79.0693C409.098 79.4385 407.607 79.5216 406.144 79.314C404.68 79.1064 403.272 78.612 401.999 77.8593C399.802 76.4061 397.965 74.4703 396.629 72.1993C393.269 66.8493 391.899 60.5493 388.799 55.0693C385.902 49.9733 381.432 45.9526 376.059 43.6093C365.429 38.9493 353.129 39.7593 342.559 44.1693C330.492 49.1204 320.727 58.4255 315.199 70.2393C314.883 70.8162 314.8 71.4925 314.967 72.1287C315.135 72.765 315.54 73.3128 316.099 73.6593C316.673 73.991 317.354 74.0825 317.995 73.9139C318.635 73.7453 319.183 73.3303 319.519 72.7593H319.539Z" fill="#4C3D36"/>
<path d="M564.859 73.6654C560.156 67.7102 551.515 66.6952 545.56 71.3983C539.605 76.1014 538.59 84.7417 543.293 90.6969L552.422 102.257C557.126 108.212 565.766 109.227 571.721 104.524C577.676 99.8206 578.691 91.1803 573.988 85.2251L564.859 73.6654Z" fill="#FFFFFD" stroke="#4C3D36" stroke-linecap="round" stroke-linejoin="round"/>
<path d="M549.711 76.9609L552.951 79.9909" stroke="#4C3D36" stroke-linecap="round" stroke-linejoin="round"/>
</svg>
